<svg xmlns="http://www.w3.org/2000/svg" xmlns:xlink="http://www.w3.org/1999/xlink" width="229.748" height="232.075" viewBox="0 0 229.748 232.075">
  <defs>
    <linearGradient id="linear-gradient" x1="0.374" y1="-0.079" x2="0.674" y2="0.848" gradientUnits="objectBoundingBox">
      <stop offset="0.131" stop-color="#a4a4a4"/>
      <stop offset="0.998" stop-color="#fff"/>
    </linearGradient>
    <linearGradient id="linear-gradient-2" x1="0.17" y1="0.815" x2="0.822" y2="0.205" gradientUnits="objectBoundingBox">
      <stop offset="0" stop-color="#d5dddd"/>
      <stop offset="0.643" stop-color="#e2d0bd"/>
      <stop offset="0.998" stop-color="#dfe9e8"/>
    </linearGradient>
  </defs>
  <g id="Group_2124" data-name="Group 2124" transform="translate(-1328.844 -360.925)">
    <g id="Group_1959" data-name="Group 1959" transform="translate(1329.432 407.717)">
      <path id="Path_1294" data-name="Path 1294" d="M242.934,310.81l-7.378-6.51-57.432-28.556L25.938,357.681l3.235,2.924,62.186,64.947h0l4.452,4.605h0L246.406,330.34l-3.038-13.888" transform="translate(-21.309 -244.875)" fill="#404d51" opacity="0.08"/>
      <g id="Group_1474" data-name="Group 1474" transform="translate(0 0)">
        <g id="Group_1465" data-name="Group 1465" transform="translate(0 0)">
          <path id="Path_1295" data-name="Path 1295" d="M6.532,398.026l71.02,73.468,155.1-92.244-11.837-11.02-95.1-16.734Z" transform="translate(-6.124 -304.15)" stroke="#404d51" stroke-miterlimit="10" stroke-width="0.705" fill="url(#linear-gradient)"/>
          <path id="Path_1296" data-name="Path 1296" d="M312.573,550.813l4.452,4.605,155.1-92.244-4.754-4.426Z" transform="translate(-245.597 -388.074)" fill="#fff"/>
          <path id="Path_1297" data-name="Path 1297" d="M6.532,398.026l71.02,73.468,155.1-92.244-11.837-11.02-95.1-16.734Z" transform="translate(-6.124 -304.15)" fill="none" stroke="#b0afaf" stroke-miterlimit="10" stroke-width="0.705"/>
          <path id="Path_1298" data-name="Path 1298" d="M4.656,227.7,76.9,293.006,233.224,201.17l-74.285-67.346Z" transform="translate(-4.656 -133.824)" fill="url(#linear-gradient-2)"/>
          <path id="Path_1299" data-name="Path 1299" d="M471.609,423.971,315.276,515.811l4.68,4.231L476.28,428.206Z" transform="translate(-247.712 -360.86)" fill="#fff"/>
          <path id="Path_1300" data-name="Path 1300" d="M4.656,227.7,76.9,293.006,233.224,201.17l-74.285-67.346Z" transform="translate(-4.656 -133.824)" fill="none" stroke="#b0afaf" stroke-miterlimit="10" stroke-width="0.705"/>
        </g>
        <g id="Group_1472" data-name="Group 1472" transform="translate(18.797 12.096)">
          <g id="Group_1471" data-name="Group 1471" transform="translate(101.56)">
            <g id="Group_1466" data-name="Group 1466" transform="translate(68.037 43.793)">
              <path id="Path_1301" data-name="Path 1301" d="M914.015,392.5l-.329.579.472.575-.862-.106-.543.47-.2-.644-.807-.284.736-.292.044-.645.658.463Z" transform="translate(-902.835 -391.85)" fill="#161615"/>
              <path id="Path_1302" data-name="Path 1302" d="M897.594,391.123l-.329.579.472.575-.862-.106-.543.47-.2-.644-.807-.284.736-.292.044-.645.658.463Z" transform="translate(-889.986 -390.774)" fill="#161615"/>
              <path id="Path_1303" data-name="Path 1303" d="M874.741,404.746l-.329.579.472.575-.861-.106-.543.47-.2-.644-.807-.284.736-.292.044-.645.658.463Z" transform="translate(-872.104 -401.434)" fill="#161615"/>
              <path id="Path_1304" data-name="Path 1304" d="M883.067,395.257l-.329.579.472.575-.861-.106-.543.47-.2-.644-.807-.284.736-.292.044-.645.658.463Z" transform="translate(-878.618 -394.009)" fill="#161615"/>
              <path id="Path_1305" data-name="Path 1305" d="M880.27,429.36l-.329.579.472.575-.862-.106-.543.47-.2-.644-.807-.284.736-.292.044-.645.658.463Z" transform="translate(-876.43 -420.694)" fill="#161615"/>
              <path id="Path_1306" data-name="Path 1306" d="M927.786,401.035l-.329.579.472.575-.861-.106-.543.47-.2-.644-.807-.284.736-.292.044-.645.658.463Z" transform="translate(-913.61 -398.53)" fill="#161615"/>
              <path id="Path_1307" data-name="Path 1307" d="M873.061,416.912l-.329.579.472.575-.861-.106-.543.47-.2-.644-.807-.284.736-.292.044-.645.658.463Z" transform="translate(-870.789 -410.953)" fill="#161615"/>
              <path id="Path_1308" data-name="Path 1308" d="M936.225,412.9l-.834.115-.658-.463-.044.645-.736.292.807.284.2.644.543-.47.862.106-.472-.575Z" transform="translate(-920.215 -407.815)" fill="#161615"/>
              <path id="Path_1309" data-name="Path 1309" d="M934.545,425.066l-.834.115-.658-.464-.044.645-.736.292.807.284.2.644.543-.47.861.106-.472-.575Z" transform="translate(-918.9 -417.334)" fill="#161615"/>
              <path id="Path_1310" data-name="Path 1310" d="M911.693,438.69l-.834.115-.658-.464-.044.646-.736.292.807.284.2.644.543-.47.862.106-.472-.575Z" transform="translate(-901.018 -427.994)" fill="#161615"/>
              <path id="Path_1311" data-name="Path 1311" d="M925.994,434.69l-.834.115-.658-.463-.044.645-.736.292.807.284.2.644.543-.47.862.106-.472-.575Z" transform="translate(-912.208 -424.865)" fill="#161615"/>
              <path id="Path_1312" data-name="Path 1312" d="M895.272,437.314l-.834.115-.658-.463-.044.645L893,437.9l.807.284.2.644.543-.47.861.106-.472-.575Z" transform="translate(-888.169 -426.918)" fill="#161615"/>
              <path id="Path_1313" data-name="Path 1313" d="M895.26,409.093l1.083-.645-1.993-1.831-.953-.876-.3-.279-5.512,3.286,1.256,1.154,2.215-1.32,1.993,1.831,1.083-.645-1.993-1.831,1.132-.675Z" transform="translate(-883.928 -402.267)" fill="#161615"/>
            </g>
            <g id="Group_1467" data-name="Group 1467" transform="translate(0 10.943)">
              <path id="Path_1314" data-name="Path 1314" d="M596.456,244.875a4.667,4.667,0,0,1-1.311-.89c-1.646-1.512-1.206-2.872.129-3.667a4.284,4.284,0,0,1,5.112.662,3.244,3.244,0,0,1,.874,1.14l-1.282.418a2.593,2.593,0,0,0-.638-.856,2.235,2.235,0,0,0-2.736-.278,1.149,1.149,0,0,0-.19,2.062,4.016,4.016,0,0,0,.924.636Z" transform="translate(-586.232 -239.747)" fill="#161615"/>
              <path id="Path_1315" data-name="Path 1315" d="M611.411,259.817c-.25.209-.047.642.37,1.026a4.588,4.588,0,0,0,1.016.72l-.747.673a5.482,5.482,0,0,1-1.432-.967c-1.13-1.038-1.058-2.05.1-2.74a3.1,3.1,0,0,1,3.608.371c1.038.954.615,1.879-.387,2.476a3.069,3.069,0,0,1-.55.259Zm1.845.325c.208-.124.508-.432.136-.774a1.011,1.011,0,0,0-1.09-.1Z" transform="translate(-598.539 -254.121)" fill="#161615"/>
              <path id="Path_1316" data-name="Path 1316" d="M625.086,271.082c.579-.345.921-.559,1.205-.758l1.006.924-.615.436.026.024a1.778,1.778,0,0,1,1.6.344,1.183,1.183,0,0,1,.213.229l-1.253.747a1.675,1.675,0,0,0-.263-.3,1.122,1.122,0,0,0-1.106-.32,2.339,2.339,0,0,0-.243.125l-1.8,1.074-1.182-1.086Z" transform="translate(-608.6 -263.673)" fill="#161615"/>
              <path id="Path_1317" data-name="Path 1317" d="M643.844,281.678l-1.038.619.666.612-.979.584-.666-.612-1.046.623c-.438.261-.531.445-.243.709a1.4,1.4,0,0,0,.31.24l-1.016.606a3.592,3.592,0,0,1-.8-.58,1.219,1.219,0,0,1-.469-.937c.027-.313.278-.621.835-.952l1.283-.765-.4-.366.979-.584.4.366.682-.407Z" transform="translate(-621.033 -271.898)" fill="#161615"/>
              <path id="Path_1318" data-name="Path 1318" d="M652.71,290.518a1.064,1.064,0,0,1-1.238-.182c-.366-.336-.312-.714.037-.922a1.046,1.046,0,0,1,1.238.172C653.113,289.921,653.074,290.29,652.71,290.518Zm-5.846,1.675,3.649-2.176L651.7,291.1l-3.649,2.175Z" transform="translate(-627.534 -278.508)" fill="#161615"/>
              <path id="Path_1319" data-name="Path 1319" d="M656.29,302.135l2.67-1.592-.411-.378.979-.584.411.378.133-.08a2.869,2.869,0,0,1,3.361.716,2.986,2.986,0,0,1,.784,1.046l-1.211.415a2.159,2.159,0,0,0-.58-.792c-.49-.45-.9-.485-1.214-.295l-.1.062,1.992,1.83-3.65,2.175-1.182-1.086,2.67-1.592-.8-.738-2.67,1.592Z" transform="translate(-634.909 -286.567)" fill="#161615"/>
              <path id="Path_1320" data-name="Path 1320" d="M679.329,324.123a3.734,3.734,0,0,1-1.038-.717c-1.071-.984-1.031-2.026.126-2.716a3.2,3.2,0,0,1,3.823.58,3.085,3.085,0,0,1,.612.753l-1.142.434a1.682,1.682,0,0,0-.42-.521,1.342,1.342,0,0,0-1.612-.166.7.7,0,0,0-.106,1.24,2.277,2.277,0,0,0,.612.416Z" transform="translate(-651.52 -302.773)" fill="#161615"/>
              <path id="Path_1321" data-name="Path 1321" d="M692.868,335.238a5.953,5.953,0,0,0-.838.579l-1.058-.972.26-.244-.026-.024a2.081,2.081,0,0,1-1.289-.577.961.961,0,0,1,.085-1.663c.979-.584,2.194-.131,3.284.871l.03-.018c.148-.088.214-.276-.218-.672a3.567,3.567,0,0,0-1.175-.674l.636-.686a4.926,4.926,0,0,1,1.666,1.025c1.1,1.014.785,1.777-.127,2.321Zm-.357-1.508c-.483-.444-.9-.6-1.226-.407-.23.137-.218.328-.016.514a.851.851,0,0,0,.746.168.908.908,0,0,0,.2-.1Z" transform="translate(-660.881 -311.275)" fill="#161615"/>
              <path id="Path_1322" data-name="Path 1322" d="M712.5,344.744l-1.039.619.666.612-.979.584-.666-.612-1.046.623c-.438.261-.531.445-.243.709a1.4,1.4,0,0,0,.31.24l-1.016.606a3.6,3.6,0,0,1-.8-.58,1.22,1.22,0,0,1-.469-.937c.027-.313.278-.621.835-.952l1.283-.765-.4-.366.979-.584.4.366.683-.407Z" transform="translate(-674.753 -321.246)" fill="#161615"/>
              <path id="Path_1323" data-name="Path 1323" d="M565.862,263.72l-4.117,2.454c-.453.27-.892.551-1.123.709l-1.045-.96.444-.334-.013-.012a2.06,2.06,0,0,1-1.544-.553c-.744-.684-.63-1.691.512-2.372a2.865,2.865,0,0,1,3.372.165c.353.324.528.664.434.938l.013.012,1.891-1.128Zm-4.372.826a1.551,1.551,0,0,0,.164-.107.449.449,0,0,0,0-.7,1.2,1.2,0,0,0-1.45-.006c-.563.336-.611.73-.285,1.03a.9.9,0,0,0,.895.159,1.1,1.1,0,0,0,.264-.128Z" transform="translate(-557.992 -257.306)" fill="#161615"/>
              <path id="Path_1324" data-name="Path 1324" d="M589.62,274.95a16.541,16.541,0,0,1-2.976.468l-.772-.608a17.489,17.489,0,0,0,2.6-.81Z" transform="translate(-579.808 -266.549)" fill="#161615"/>
              <path id="Path_1325" data-name="Path 1325" d="M585.92,280.814a1.063,1.063,0,0,1-1.238-.182c-.366-.336-.312-.714.036-.922a1.045,1.045,0,0,1,1.239.172C586.323,280.218,586.284,280.587,585.92,280.814Zm-5.846,1.675,3.65-2.176,1.182,1.086-3.649,2.176Z" transform="translate(-575.271 -270.914)" fill="#161615"/>
              <path id="Path_1326" data-name="Path 1326" d="M591.273,291.693c.489-.292.892-.552,1.22-.767l.986.906-.414.316.026.024a2.151,2.151,0,0,1,1.495.553c.411.378.516.8.283,1.147l.013.012a2.651,2.651,0,0,1,.882.147,2.086,2.086,0,0,1,.716.433c.692.636.519,1.342-.5,1.948l-2.144,1.278-1.143-1.05,1.943-1.158c.452-.27.594-.533.333-.773a.71.71,0,0,0-.671-.144,1.064,1.064,0,0,0-.3.129l-2.077,1.238-1.143-1.05,1.98-1.18c.408-.243.564-.5.3-.75a.77.77,0,0,0-.656-.153,1.149,1.149,0,0,0-.307.134l-2.084,1.242-1.143-1.05Z" transform="translate(-582.154 -279.794)" fill="#161615"/>
              <path id="Path_1327" data-name="Path 1327" d="M617.419,315.711c.49-.292.892-.551,1.22-.767l.986.906-.414.316.026.024a2.151,2.151,0,0,1,1.5.553c.411.378.516.8.282,1.147l.013.012a2.664,2.664,0,0,1,.882.147,2.088,2.088,0,0,1,.717.434c.692.636.519,1.342-.5,1.948l-2.143,1.278-1.143-1.05,1.943-1.158c.453-.27.595-.532.333-.772a.71.71,0,0,0-.671-.144,1.062,1.062,0,0,0-.3.129l-2.077,1.238-1.143-1.05,1.98-1.18c.408-.243.564-.5.3-.75a.769.769,0,0,0-.656-.153,1.148,1.148,0,0,0-.307.134l-2.084,1.242-1.143-1.05Z" transform="translate(-602.613 -298.588)" fill="#161615"/>
              <path id="Path_1328" data-name="Path 1328" d="M646.161,343.983a5.9,5.9,0,0,0-.838.579l-1.058-.972.26-.244-.026-.024a2.08,2.08,0,0,1-1.289-.577.96.96,0,0,1,.085-1.663c.979-.584,2.194-.131,3.284.871l.03-.018c.148-.088.214-.276-.218-.672a3.572,3.572,0,0,0-1.175-.674l.636-.686a4.922,4.922,0,0,1,1.666,1.025c1.1,1.014.785,1.777-.127,2.321Zm-.357-1.508c-.483-.444-.9-.6-1.226-.407-.23.137-.218.328-.015.514a.85.85,0,0,0,.746.169.906.906,0,0,0,.2-.1Z" transform="translate(-624.334 -318.118)" fill="#161615"/>
              <path id="Path_1329" data-name="Path 1329" d="M665.791,353.49l-1.038.619.666.612-.979.584-.666-.612-1.046.623c-.438.261-.531.445-.243.709a1.409,1.409,0,0,0,.31.24l-1.016.606a3.592,3.592,0,0,1-.8-.58,1.217,1.217,0,0,1-.469-.937c.027-.313.278-.621.834-.952l1.283-.765-.4-.366.979-.584.4.366.682-.407Z" transform="translate(-638.207 -328.089)" fill="#161615"/>
              <path id="Path_1330" data-name="Path 1330" d="M671.229,365.119c.578-.345.921-.559,1.205-.758l1.006.924-.614.436.026.024a1.778,1.778,0,0,1,1.6.344,1.187,1.187,0,0,1,.213.229l-1.253.747a1.692,1.692,0,0,0-.264-.3,1.122,1.122,0,0,0-1.106-.32,2.381,2.381,0,0,0-.243.125l-1.8,1.074-1.182-1.086Z" transform="translate(-644.707 -337.256)" fill="#161615"/>
              <path id="Path_1331" data-name="Path 1331" d="M686.635,373.332a1.064,1.064,0,0,1-1.238-.182c-.366-.336-.312-.714.036-.922a1.046,1.046,0,0,1,1.239.171C687.038,372.736,687,373.1,686.635,373.332Zm-5.846,1.675,3.649-2.176,1.182,1.086-3.649,2.176Z" transform="translate(-654.079 -343.309)" fill="#161615"/>
              <path id="Path_1332" data-name="Path 1332" d="M694.762,389.951a3.723,3.723,0,0,1-1.037-.717c-1.071-.984-1.032-2.026.126-2.716a3.2,3.2,0,0,1,3.823.579,3.082,3.082,0,0,1,.612.753l-1.142.434a1.676,1.676,0,0,0-.42-.521,1.342,1.342,0,0,0-1.612-.167.7.7,0,0,0-.106,1.24,2.272,2.272,0,0,0,.612.416Z" transform="translate(-663.596 -354.282)" fill="#161615"/>
              <path id="Path_1333" data-name="Path 1333" d="M709.767,400.4c-.519.31-.922.569-1.22.767l-1.019-.936.43-.335-.02-.018a2.128,2.128,0,0,1-1.537-.558c-.718-.66-.616-1.364.437-1.991l2.151-1.282,1.182,1.086-1.936,1.154c-.467.279-.589.549-.308.807a.777.777,0,0,0,.69.162.684.684,0,0,0,.219-.091l2.151-1.282,1.182,1.086Z" transform="translate(-673.76 -362.049)" fill="#161615"/>
              <path id="Path_1334" data-name="Path 1334" d="M726.43,408.132l1.182,1.086-5.266,3.139-1.182-1.086Z" transform="translate(-685.672 -371.506)" fill="#161615"/>
              <path id="Path_1335" data-name="Path 1335" d="M734.957,425.553a5.907,5.907,0,0,0-.838.579l-1.058-.972.26-.244-.026-.024a2.082,2.082,0,0,1-1.288-.577.96.96,0,0,1,.085-1.663c.979-.584,2.194-.131,3.284.871l.03-.018c.148-.088.214-.276-.217-.672a3.567,3.567,0,0,0-1.175-.675l.636-.686a4.92,4.92,0,0,1,1.666,1.025c1.1,1.014.785,1.777-.127,2.321Zm-.357-1.508c-.483-.444-.9-.6-1.226-.407-.23.137-.218.328-.016.514a.851.851,0,0,0,.746.169.919.919,0,0,0,.2-.1Z" transform="translate(-693.815 -381.945)" fill="#161615"/>
              <path id="Path_1336" data-name="Path 1336" d="M754.587,435.059l-1.038.619.666.612-.979.584-.666-.612-1.046.623c-.438.261-.531.445-.243.709a1.411,1.411,0,0,0,.31.24l-1.016.606a3.589,3.589,0,0,1-.8-.58,1.219,1.219,0,0,1-.469-.937c.026-.313.278-.621.834-.952l1.283-.765-.4-.366.979-.584.4.366.682-.407Z" transform="translate(-707.688 -391.916)" fill="#161615"/>
              <path id="Path_1337" data-name="Path 1337" d="M763.453,443.9a1.064,1.064,0,0,1-1.238-.182c-.366-.336-.312-.714.036-.922a1.046,1.046,0,0,1,1.239.171C763.855,443.3,763.817,443.672,763.453,443.9Zm-5.846,1.675,3.649-2.176,1.182,1.086-3.649,2.176Z" transform="translate(-714.188 -398.526)" fill="#161615"/>
              <path id="Path_1338" data-name="Path 1338" d="M774.205,460.109a3.067,3.067,0,0,1-3.68-.437c-.96-.882-1.015-1.977.172-2.684a3.057,3.057,0,0,1,3.706.472A1.508,1.508,0,0,1,774.205,460.109Zm-2.264-2.023c-.549.327-.807.719-.442,1.055.32.294.868.224,1.454-.125.5-.3.821-.707.474-1.024A1.271,1.271,0,0,0,771.941,458.085Z" transform="translate(-723.733 -409.403)" fill="#161615"/>
              <path id="Path_1339" data-name="Path 1339" d="M786.458,470.992c.489-.292.892-.552,1.22-.767l1.019.936-.415.327.02.018a2.241,2.241,0,0,1,1.515.561c.751.69.584,1.413-.418,2.009l-2.151,1.282-1.182-1.086,1.988-1.185c.423-.252.544-.512.256-.776a.79.79,0,0,0-.7-.164.973.973,0,0,0-.3.129l-2.069,1.234-1.182-1.086Z" transform="translate(-734.883 -420.093)" fill="#161615"/>
            </g>
            <g id="Group_1470" data-name="Group 1470" transform="translate(20.166)">
              <g id="Group_1468" data-name="Group 1468" transform="translate(4.774)">
                <path id="Path_1340" data-name="Path 1340" d="M675.9,189.436a7.776,7.776,0,0,1,.869.695c.418.383.623.691.631.98a.715.715,0,0,1-.41.623,1.48,1.48,0,0,1-1.351.01l-.014.009c.118.242.013.494-.231.751a6.062,6.062,0,0,0-.691.757l-.547-.5a4.272,4.272,0,0,1,.583-.641c.348-.331.348-.54.056-.822l-.267-.245-1.354.807-.525-.482Zm-.932,1.351.314.289a.946.946,0,0,0,1.123.21c.362-.216.3-.52-.04-.837a2.367,2.367,0,0,0-.357-.283Z" transform="translate(-672.651 -189.436)" fill="#161615"/>
                <path id="Path_1341" data-name="Path 1341" d="M686.8,204.418c-.417.268-.306.652.03.96a2.605,2.605,0,0,0,.688.47l-.338.319a3.3,3.3,0,0,1-.878-.585c-.68-.624-.606-1.275.122-1.709a1.958,1.958,0,0,1,2.305.177c.68.625.268,1.209-.255,1.521a1.884,1.884,0,0,1-.271.136Zm1.341.6c.224-.127.5-.422.147-.746a.99.99,0,0,0-1.068-.1Zm2.211-.953-1.253-.055-.366-.336,1.1-.087Z" transform="translate(-682.967 -200.505)" fill="#161615"/>
                <path id="Path_1342" data-name="Path 1342" d="M692.18,211.914c.313-.186.558-.346.774-.488l.465.427-.341.242.009.008a1.552,1.552,0,0,1,1.139.41c.482.443.413,1.09-.33,1.533a1.879,1.879,0,0,1-2.231-.117.694.694,0,0,1-.272-.731l-.009-.008-1.232.734-.529-.486Zm-.062.839a.658.658,0,0,0-.149.115.448.448,0,0,0,.044.678,1.092,1.092,0,0,0,1.321.021c.42-.251.582-.62.242-.933a.957.957,0,0,0-.918-.17.728.728,0,0,0-.173.07Z" transform="translate(-685.931 -206.643)" fill="#161615"/>
                <path id="Path_1343" data-name="Path 1343" d="M709.612,224.817c-.284.169-.51.317-.7.441l-.465-.427.336-.239-.009-.008a1.459,1.459,0,0,1-1.087-.369c-.383-.352-.472-.827.3-1.29l1.4-.834.529.486-1.3.772c-.4.236-.538.49-.258.747a.87.87,0,0,0,.727.179.75.75,0,0,0,.216-.083l1.437-.857.529.486Z" transform="translate(-699.845 -214.989)" fill="#161615"/>
                <path id="Path_1344" data-name="Path 1344" d="M716.819,231.533c.17-.088.443-.238.687-.383l2.8-1.67.529.486-1.417.845.008.008a1.44,1.44,0,0,1,1.053.389c.512.47.394,1.095-.334,1.522a1.892,1.892,0,0,1-2.232-.11.713.713,0,0,1-.252-.854l-.008-.008-.383.189Zm1.529-.084a.711.711,0,0,0-.129.1.456.456,0,0,0,.049.681,1.08,1.08,0,0,0,1.316.024c.42-.251.586-.617.233-.941a.963.963,0,0,0-.909-.169.94.94,0,0,0-.174.077Z" transform="translate(-707.212 -220.77)" fill="#161615"/>
                <path id="Path_1345" data-name="Path 1345" d="M731.941,240.11l.534.49L729,242.669l-.534-.49Z" transform="translate(-716.329 -229.088)" fill="#161615"/>
                <path id="Path_1346" data-name="Path 1346" d="M737.162,246.121a.532.532,0,0,1-.624-.084.265.265,0,0,1,.03-.461.536.536,0,0,1,.624.077A.269.269,0,0,1,737.162,246.121Zm-3.609,1.3L735.934,246l.533.49-2.381,1.419Z" transform="translate(-720.306 -233.312)" fill="#161615"/>
                <path id="Path_1347" data-name="Path 1347" d="M741.749,256.011,741.74,256a1.38,1.38,0,0,1-1.031-.37c-.469-.431-.414-1.083.329-1.526a1.889,1.889,0,0,1,2.219.1.652.652,0,0,1,.245.78l0,.011.331-.178.512.47c-.224.12-.457.247-.706.4l-2.659,1.585-.53-.486Zm1.07-.638a.769.769,0,0,0,.134-.1.433.433,0,0,0-.036-.663,1.091,1.091,0,0,0-1.311-.027c-.435.259-.577.624-.242.933a.9.9,0,0,0,.848.179.828.828,0,0,0,.211-.087Z" transform="translate(-725.67 -239.799)" fill="#161615"/>
                <path id="Path_1348" data-name="Path 1348" d="M754.076,265.663c-.284.169-.51.317-.7.441l-.465-.427.336-.239-.009-.008a1.459,1.459,0,0,1-1.087-.369c-.383-.352-.473-.827.3-1.29l1.4-.833.53.486-1.3.772c-.4.236-.538.49-.258.747a.87.87,0,0,0,.727.179.755.755,0,0,0,.216-.083l1.437-.857.529.486Z" transform="translate(-734.638 -246.95)" fill="#161615"/>
                <path id="Path_1349" data-name="Path 1349" d="M764.3,275.609c-.417.269-.306.652.03.96a2.6,2.6,0,0,0,.689.47l-.338.319a3.3,3.3,0,0,1-.878-.585c-.68-.625-.606-1.275.122-1.709a1.957,1.957,0,0,1,2.3.177c.68.625.268,1.209-.255,1.521a1.891,1.891,0,0,1-.271.136Zm1.341.6c.224-.127.5-.422.147-.746a.99.99,0,0,0-1.068-.1Z" transform="translate(-743.609 -256.211)" fill="#161615"/>
                <path id="Path_1350" data-name="Path 1350" d="M779.058,284.036l1.674,1.538-.494.294-1.145-1.052-.909.542,1.067.981-.494.294-1.067-.981-1.4.833-.53-.486Z" transform="translate(-753.335 -263.459)" fill="#161615"/>
                <path id="Path_1351" data-name="Path 1351" d="M786.911,295.7c.323-.193.548-.333.751-.474l.461.423-.438.287.017.016a1.217,1.217,0,0,1,1.081.223.737.737,0,0,1,.11.123l-.567.338a.959.959,0,0,0-.135-.154.9.9,0,0,0-.928-.164,1.342,1.342,0,0,0-.2.1l-1.232.734-.529-.486Z" transform="translate(-760.796 -272.216)" fill="#161615"/>
                <path id="Path_1352" data-name="Path 1352" d="M794.012,304.457l.23-.189-.013-.012a1.465,1.465,0,0,1-.938-.38.592.592,0,0,1,.05-1.027c.6-.359,1.374-.108,2.143.606l.039-.023c.156-.093.359-.3-.011-.639a1.952,1.952,0,0,0-.74-.413l.288-.328a2.626,2.626,0,0,1,.968.571c.671.617.381,1.083-.137,1.392l-.86.513a4.334,4.334,0,0,0-.542.369Zm1.095-.757c-.365-.35-.815-.623-1.177-.407-.235.14-.209.326-.041.481a.832.832,0,0,0,.741.184.579.579,0,0,0,.149-.063Z" transform="translate(-766.838 -277.557)" fill="#161615"/>
                <path id="Path_1353" data-name="Path 1353" d="M803.882,311.2c.274-.163.5-.3.691-.439l.465.427-.331.237.013.012a1.45,1.45,0,0,1,1.078.368c.366.336.476.844-.277,1.293l-1.413.842-.529-.486,1.344-.8c.342-.2.489-.461.2-.726a.866.866,0,0,0-.765-.17.807.807,0,0,0-.217.1l-1.4.833-.534-.49Z" transform="translate(-774.03 -284.373)" fill="#161615"/>
                <path id="Path_1354" data-name="Path 1354" d="M813.469,325.224a2.529,2.529,0,0,1-.634-.4l-.276.021a.3.3,0,0,1-.037.492.76.76,0,0,1-.9-.206.705.705,0,0,1-.23-.352l.322-.075a.563.563,0,0,0,.154.26.266.266,0,0,0,.31.07q.161-.1-.145-.422l.534-.057a.931.931,0,0,1,.32-1.52,2.048,2.048,0,0,1,2.437.314,1.622,1.622,0,0,1,.4.538l-.544.181a1.127,1.127,0,0,0-.307-.423,1.177,1.177,0,0,0-1.413-.129.6.6,0,0,0-.126,1.047,1.751,1.751,0,0,0,.51.328Z" transform="translate(-781.213 -293.767)" fill="#161615"/>
                <path id="Path_1355" data-name="Path 1355" d="M824.256,332.24l.229-.189-.013-.012a1.464,1.464,0,0,1-.937-.38.592.592,0,0,1,.05-1.028c.6-.358,1.374-.108,2.143.606l.039-.023c.156-.093.359-.3-.011-.639a1.952,1.952,0,0,0-.74-.413l.288-.328a2.622,2.622,0,0,1,.968.57c.671.617.381,1.083-.137,1.392l-.86.513a4.3,4.3,0,0,0-.542.369Zm1.095-.757c-.365-.35-.815-.622-1.176-.407-.235.14-.209.327-.041.481a.831.831,0,0,0,.741.184.584.584,0,0,0,.149-.063Z" transform="translate(-790.504 -299.296)" fill="#161615"/>
                <path id="Path_1356" data-name="Path 1356" d="M836.063,336.973a.531.531,0,0,1-.624-.085.265.265,0,0,1,.03-.461.536.536,0,0,1,.624.078A.269.269,0,0,1,836.063,336.973Zm-3.609,1.3,2.381-1.419.534.49-2.381,1.419Z" transform="translate(-797.695 -304.402)" fill="#161615"/>
                <path id="Path_1357" data-name="Path 1357" d="M838,345.084a1.347,1.347,0,0,0,.367.6c.233.214.443.244.6.151s.158-.225,0-.523c-.247-.472-.165-.782.117-.944a1.33,1.33,0,0,1,1.54.281,1.464,1.464,0,0,1,.413.594l-.528.159a1.078,1.078,0,0,0-.306-.489.458.458,0,0,0-.542-.12c-.152.091-.126.225.033.534.222.441.179.735-.169.948a1.344,1.344,0,0,1-1.6-.339,1.6,1.6,0,0,1-.471-.684Z" transform="translate(-801.615 -310.557)" fill="#161615"/>
                <path id="Path_1358" data-name="Path 1358" d="M848.7,353.142c-.417.268-.306.652.03.96a2.6,2.6,0,0,0,.689.47l-.338.319a3.289,3.289,0,0,1-.878-.585c-.68-.625-.606-1.275.122-1.709a1.958,1.958,0,0,1,2.3.177c.68.625.268,1.209-.254,1.521a1.879,1.879,0,0,1-.272.136Zm1.341.6c.224-.127.5-.422.147-.746a.99.99,0,0,0-1.068-.1Z" transform="translate(-809.652 -316.879)" fill="#161615"/>
              </g>
              <g id="Group_1469" data-name="Group 1469" transform="translate(0 3.356)">
                <path id="Path_1359" data-name="Path 1359" d="M653.439,207.092c.3-.2.665-.446.951-.612l-.009-.008c-.335.1-.7.189-1.116.283l-1.455.333-.2-.18.759-.942a9.443,9.443,0,0,1,.652-.739l-.006-.005c-.289.163-.685.377-1.043.563l-1.028.532-.246-.226,2.411-1.226.329.3-.758.969a8.538,8.538,0,0,1-.563.642l.009.008c.28-.09.6-.174.976-.263l1.455-.328.329.3-2.147,1.469-.253-.232Z" transform="translate(-650.702 -204.863)" fill="#161615"/>
                <path id="Path_1360" data-name="Path 1360" d="M664.418,215.207a.292.292,0,0,1-.349-.044.147.147,0,0,1,.025-.253.3.3,0,0,1,.349.039A.148.148,0,0,1,664.418,215.207Zm-2.381.979,1.632-.972.261.24-1.632.973Z" transform="translate(-659.571 -212.695)" fill="#161615"/>
                <path id="Path_1361" data-name="Path 1361" d="M666.419,219.6c.169-.1.3-.186.43-.274l.231.213-.255.174.006.006a1.016,1.016,0,0,1,.782.253c.2.183.373.547-.187.88l-.974.581-.261-.24.941-.561c.263-.157.4-.367.149-.593a.722.722,0,0,0-.654-.141.573.573,0,0,0-.156.066l-.981.585-.261-.24Z" transform="translate(-662.069 -216.179)" fill="#161615"/>
                <path id="Path_1362" data-name="Path 1362" d="M675.181,225.094a.291.291,0,0,1-.348-.044.147.147,0,0,1,.025-.253.3.3,0,0,1,.349.039A.148.148,0,0,1,675.181,225.094Zm-2.381.979,1.632-.972.261.24-1.632.973Z" transform="translate(-667.993 -220.431)" fill="#161615"/>
                <path id="Path_1363" data-name="Path 1363" d="M676.176,230.447a.766.766,0,0,0,.226.387.436.436,0,0,0,.522.112c.142-.084.145-.2.033-.424-.154-.3-.114-.508.082-.624a.922.922,0,0,1,1.226.555l-.281.068a.629.629,0,0,0-.2-.326.4.4,0,0,0-.463-.088c-.135.08-.11.2,0,.416.141.293.127.5-.115.64a.865.865,0,0,1-1.026-.2.962.962,0,0,1-.292-.437Z" transform="translate(-670.407 -224.381)" fill="#161615"/>
                <path id="Path_1364" data-name="Path 1364" d="M684.7,233.591l-.469.279.374.343-.226.135-.374-.343-.88.525c-.2.121-.266.235-.121.369a.921.921,0,0,0,.172.127l-.211.144a1.052,1.052,0,0,1-.272-.189.383.383,0,0,1-.157-.333c.013-.12.132-.231.324-.346l.89-.531-.223-.2.226-.135.223.2.391-.233Z" transform="translate(-675.609 -227.195)" fill="#161615"/>
                <path id="Path_1365" data-name="Path 1365" d="M687.718,238.046a.443.443,0,0,0-.073.79,1.585,1.585,0,0,0,.482.315l-.168.168a1.961,1.961,0,0,1-.579-.379.641.641,0,0,1,.116-1.139,1.313,1.313,0,0,1,1.554.094c.469.431.125.825-.175,1a1.445,1.445,0,0,1-.147.075Zm.978.577c.192-.11.414-.35.12-.62a.829.829,0,0,0-.883-.081Zm.923-1.215-.221.527-.187-.172.12-.62Z" transform="translate(-679.17 -230.122)" fill="#161615"/>
                <path id="Path_1366" data-name="Path 1366" d="M693.786,244.839c.192-.114.354-.216.5-.314l.228.21-.311.2.012.011a.841.841,0,0,1,.755.152.373.373,0,0,1,.064.074l-.28.167a.529.529,0,0,0-.079-.088.706.706,0,0,0-.731-.095,1.03,1.03,0,0,0-.15.072l-.87.518-.258-.237Z" transform="translate(-683.536 -235.898)" fill="#161615"/>
                <path id="Path_1367" data-name="Path 1367" d="M698.877,249.914a.443.443,0,0,0-.074.79,1.584,1.584,0,0,0,.482.315l-.168.168a1.963,1.963,0,0,1-.579-.379.641.641,0,0,1,.116-1.139,1.313,1.313,0,0,1,1.554.094c.469.431.125.825-.175,1a1.421,1.421,0,0,1-.147.074Zm.978.577c.192-.11.414-.35.12-.62a.829.829,0,0,0-.883-.081Z" transform="translate(-687.902 -239.76)" fill="#161615"/>
                <path id="Path_1368" data-name="Path 1368" d="M711.268,258.864l-1.972,1.176c-.145.086-.307.188-.409.262l-.235-.215.271-.18-.006-.005a1.02,1.02,0,0,1-.81-.259c-.347-.319-.281-.763.215-1.059a1.3,1.3,0,0,1,1.521.069.475.475,0,0,1,.184.547l.006.005.974-.581Zm-1.687.61a.585.585,0,0,0,.113-.085.359.359,0,0,0-.033-.551.892.892,0,0,0-1.061-.019c-.33.2-.461.49-.179.75a.76.76,0,0,0,.737.141.675.675,0,0,0,.14-.066Z" transform="translate(-695.451 -246.733)" fill="#161615"/>
                <path id="Path_1369" data-name="Path 1369" d="M716.3,265.916a.443.443,0,0,0-.074.79,1.582,1.582,0,0,0,.482.315l-.168.168a1.959,1.959,0,0,1-.579-.379.641.641,0,0,1,.116-1.139,1.313,1.313,0,0,1,1.554.094c.469.431.125.825-.175,1a1.35,1.35,0,0,1-.147.074Zm.978.577c.192-.11.414-.35.12-.62a.829.829,0,0,0-.883-.081Z" transform="translate(-701.533 -252.282)" fill="#161615"/>
                <path id="Path_1370" data-name="Path 1370" d="M726.527,271.4l.261.24-2.393,1.427-.261-.24Z" transform="translate(-708.162 -256.924)" fill="#161615"/>
                <path id="Path_1371" data-name="Path 1371" d="M735.005,275.224a6.129,6.129,0,0,1-1.078.22l-.19-.139a6.924,6.924,0,0,0,.967-.311Z" transform="translate(-715.676 -259.74)" fill="#161615"/>
                <path id="Path_1372" data-name="Path 1372" d="M732.107,277.388a.292.292,0,0,1-.348-.044.147.147,0,0,1,.025-.253.3.3,0,0,1,.349.039A.148.148,0,0,1,732.107,277.388Zm-2.381.979,1.632-.973.261.24-1.631.973Z" transform="translate(-712.537 -261.35)" fill="#161615"/>
                <path id="Path_1373" data-name="Path 1373" d="M734.108,281.778c.169-.1.3-.186.43-.274l.231.213-.255.174.006.005a1.017,1.017,0,0,1,.782.253c.2.183.373.547-.187.88l-.974.581-.261-.24.94-.561c.263-.157.4-.367.149-.593a.721.721,0,0,0-.653-.141.577.577,0,0,0-.156.066l-.981.585-.261-.24Z" transform="translate(-715.035 -264.834)" fill="#161615"/>
                <path id="Path_1374" data-name="Path 1374" d="M743.741,287.826l-.469.28.374.343-.226.134-.374-.343-.88.524c-.2.121-.267.235-.121.369a.919.919,0,0,0,.171.127l-.21.144a1.046,1.046,0,0,1-.272-.189.382.382,0,0,1-.157-.333c.013-.12.132-.231.324-.346l.89-.531-.223-.2.226-.135.223.2.391-.233Z" transform="translate(-721.808 -269.633)" fill="#161615"/>
                <path id="Path_1375" data-name="Path 1375" d="M746.758,293.9a.443.443,0,0,0-.074.79,1.587,1.587,0,0,0,.482.315l-.168.168a1.967,1.967,0,0,1-.579-.379.641.641,0,0,1,.116-1.139,1.313,1.313,0,0,1,1.554.094c.469.431.125.825-.175,1a1.423,1.423,0,0,1-.147.074Zm.979.577c.191-.11.414-.35.12-.62a.829.829,0,0,0-.883-.081Zm1.424-.755-.844-.045-.187-.172.743-.048Z" transform="translate(-725.369 -274.178)" fill="#161615"/>
                <path id="Path_1376" data-name="Path 1376" d="M752.826,299.075c.192-.115.354-.216.5-.314l.228.21-.311.2.012.011a.84.84,0,0,1,.755.152.359.359,0,0,1,.064.074l-.28.167a.52.52,0,0,0-.079-.088.706.706,0,0,0-.731-.095,1.107,1.107,0,0,0-.15.072l-.87.519-.258-.237Z" transform="translate(-729.735 -278.337)" fill="#161615"/>
                <path id="Path_1377" data-name="Path 1377" d="M758.6,301.723a.292.292,0,0,1-.348-.044.147.147,0,0,1,.025-.253.3.3,0,0,1,.349.04A.148.148,0,0,1,758.6,301.723Zm-2.381.979,1.632-.973.261.24-1.632.973Z" transform="translate(-733.267 -280.393)" fill="#161615"/>
                <path id="Path_1378" data-name="Path 1378" d="M761.3,307.256a.443.443,0,0,0-.074.79,1.591,1.591,0,0,0,.482.315l-.168.167a1.964,1.964,0,0,1-.579-.379.641.641,0,0,1,.116-1.139,1.313,1.313,0,0,1,1.554.094c.469.431.125.825-.175,1a1.408,1.408,0,0,1-.147.074Zm.978.577c.192-.11.414-.35.12-.62a.83.83,0,0,0-.883-.081Z" transform="translate(-736.747 -284.63)" fill="#161615"/>
                <path id="Path_1379" data-name="Path 1379" d="M768.822,313.951c-.169.1-.314.192-.433.276l-.231-.212.251-.173-.006-.005a1.043,1.043,0,0,1-.778-.255c-.226-.207-.354-.54.219-.881l.954-.569.261.24-.9.539c-.31.185-.436.386-.2.6a.736.736,0,0,0,.614.155.591.591,0,0,0,.175-.069l1-.6.261.24Z" transform="translate(-742.043 -288.799)" fill="#161615"/>
                <path id="Path_1380" data-name="Path 1380" d="M774.884,319.338c.192-.115.354-.216.5-.315l.228.21-.311.2.012.011a.839.839,0,0,1,.755.152.378.378,0,0,1,.064.074l-.28.167a.52.52,0,0,0-.079-.088.706.706,0,0,0-.731-.095,1.069,1.069,0,0,0-.15.072l-.87.518-.258-.237Z" transform="translate(-746.994 -294.192)" fill="#161615"/>
              </g>
            </g>
            <line id="Line_61" data-name="Line 61" x2="57.324" y2="52.659" transform="translate(15.221 7.495)" fill="none" stroke="#161615" stroke-miterlimit="10" stroke-width="0.825"/>
          </g>
          <path id="Path_1381" data-name="Path 1381" d="M320.257,506.642,269.684,458l1.483-.884,50.573,48.641Z" transform="translate(-230.834 -398.893)" fill="#404d51" opacity="0.2"/>
          <path id="Path_1382" data-name="Path 1382" d="M308.376,513.723,257.8,465.081l1.483-.884,50.573,48.642Z" transform="translate(-221.538 -404.433)" fill="#404d51" opacity="0.2"/>
          <path id="Path_1383" data-name="Path 1383" d="M296.495,520.8l-50.573-48.642,1.483-.884,50.573,48.641Z" transform="translate(-212.241 -409.974)" fill="#404d51" opacity="0.2"/>
          <path id="Path_1384" data-name="Path 1384" d="M284.613,527.884,234.04,479.242l1.483-.884L286.1,527Z" transform="translate(-202.944 -415.514)" fill="#404d51" opacity="0.2"/>
          <path id="Path_1385" data-name="Path 1385" d="M272.732,534.964l-50.573-48.642,1.483-.884,50.573,48.641Z" transform="translate(-193.647 -421.055)" fill="#404d51" opacity="0.2"/>
          <path id="Path_1386" data-name="Path 1386" d="M260.851,542.045,210.278,493.4l1.483-.884,50.573,48.642Z" transform="translate(-184.35 -426.595)" fill="#404d51" opacity="0.2"/>
          <path id="Path_1387" data-name="Path 1387" d="M248.97,549.125,198.4,500.484l1.483-.884,50.573,48.642Z" transform="translate(-175.053 -432.135)" fill="#404d51" opacity="0.2"/>
          <path id="Path_1388" data-name="Path 1388" d="M237.088,556.206l-50.573-48.642L188,506.68l50.573,48.642Z" transform="translate(-165.756 -437.676)" fill="#404d51" opacity="0.2"/>
          <path id="Path_1389" data-name="Path 1389" d="M224.818,563.518l-50.573-48.641,1.483-.884L226.3,562.635Z" transform="translate(-156.154 -443.398)" fill="#404d51" opacity="0.2"/>
          <path id="Path_1390" data-name="Path 1390" d="M212.936,570.6l-50.573-48.642,1.483-.884,50.573,48.642Z" transform="translate(-146.857 -448.938)" fill="#404d51" opacity="0.2"/>
          <path id="Path_1391" data-name="Path 1391" d="M201.055,577.679l-50.573-48.641,1.483-.884L202.538,576.8Z" transform="translate(-137.56 -454.479)" fill="#404d51" opacity="0.2"/>
          <path id="Path_1392" data-name="Path 1392" d="M189.174,584.76,138.6,536.118l1.483-.884,50.573,48.642Z" transform="translate(-128.263 -460.019)" fill="#404d51" opacity="0.2"/>
          <path id="Path_1393" data-name="Path 1393" d="M177.293,591.84,126.719,543.2l1.483-.884,50.573,48.642Z" transform="translate(-118.967 -465.56)" fill="#404d51" opacity="0.2"/>
          <path id="Path_1394" data-name="Path 1394" d="M165.411,598.921l-50.573-48.642,1.483-.884,50.573,48.642Z" transform="translate(-109.67 -471.1)" fill="#404d51" opacity="0.2"/>
          <path id="Path_1395" data-name="Path 1395" d="M153.53,606,102.957,557.36l1.483-.884,50.573,48.642Z" transform="translate(-100.373 -476.64)" fill="#404d51" opacity="0.2"/>
          <path id="Path_1396" data-name="Path 1396" d="M141.649,613.082,91.076,564.44l1.483-.884L143.132,612.2Z" transform="translate(-91.076 -482.181)" fill="#404d51" opacity="0.2"/>
          <path id="Path_1397" data-name="Path 1397" d="M584.633,342.545l-52.042-47.919,1.48-.882,52.042,47.919Z" transform="translate(-436.557 -271.055)" fill="#404d51" opacity="0.2"/>
          <path id="Path_1398" data-name="Path 1398" d="M572.777,349.613l-52.042-47.919,1.48-.882,52.042,47.919Z" transform="translate(-427.279 -276.586)" fill="#404d51" opacity="0.2"/>
          <path id="Path_1399" data-name="Path 1399" d="M560.92,356.681l-52.042-47.919,1.48-.882L562.4,355.8Z" transform="translate(-418.001 -282.117)" fill="#404d51" opacity="0.2"/>
          <path id="Path_1400" data-name="Path 1400" d="M549.063,363.749,497.021,315.83l1.48-.882,52.042,47.919Z" transform="translate(-408.723 -287.648)" fill="#404d51" opacity="0.2"/>
          <path id="Path_1401" data-name="Path 1401" d="M537.206,370.818,485.165,322.9l1.48-.882,52.042,47.919Z" transform="translate(-399.445 -293.178)" fill="#404d51" opacity="0.2"/>
          <path id="Path_1402" data-name="Path 1402" d="M525.349,377.886l-52.042-47.919,1.48-.882L526.829,377Z" transform="translate(-390.168 -298.709)" fill="#404d51" opacity="0.2"/>
          <path id="Path_1403" data-name="Path 1403" d="M513.493,384.954l-52.042-47.919,1.48-.882,52.042,47.919Z" transform="translate(-380.89 -304.24)" fill="#404d51" opacity="0.2"/>
          <path id="Path_1404" data-name="Path 1404" d="M501.636,392.022,449.594,344.1l1.48-.882,52.042,47.919Z" transform="translate(-371.612 -309.771)" fill="#404d51" opacity="0.2"/>
          <path id="Path_1405" data-name="Path 1405" d="M489.39,399.322,437.349,351.4l1.48-.882L490.87,398.44Z" transform="translate(-362.03 -315.483)" fill="#404d51" opacity="0.2"/>
          <path id="Path_1406" data-name="Path 1406" d="M477.534,406.39l-52.042-47.919,1.48-.882,52.042,47.919Z" transform="translate(-352.752 -321.013)" fill="#404d51" opacity="0.2"/>
          <path id="Path_1407" data-name="Path 1407" d="M465.677,413.458l-52.042-47.919,1.48-.882,52.042,47.919Z" transform="translate(-343.474 -326.544)" fill="#404d51" opacity="0.2"/>
          <path id="Path_1408" data-name="Path 1408" d="M453.82,420.526l-52.042-47.919,1.48-.882L455.3,419.644Z" transform="translate(-334.197 -332.075)" fill="#404d51" opacity="0.2"/>
          <path id="Path_1409" data-name="Path 1409" d="M441.963,427.594l-52.042-47.919,1.48-.882,52.042,47.919Z" transform="translate(-324.919 -337.606)" fill="#404d51" opacity="0.2"/>
          <path id="Path_1410" data-name="Path 1410" d="M430.106,434.663l-52.042-47.919,1.48-.882,52.042,47.919Z" transform="translate(-315.641 -343.136)" fill="#404d51" opacity="0.2"/>
          <path id="Path_1411" data-name="Path 1411" d="M418.25,441.731l-52.042-47.919,1.48-.882,52.042,47.919Z" transform="translate(-306.363 -348.667)" fill="#404d51" opacity="0.2"/>
          <path id="Path_1412" data-name="Path 1412" d="M406.393,448.8,354.351,400.88l1.48-.882,52.042,47.919Z" transform="translate(-297.085 -354.198)" fill="#404d51" opacity="0.2"/>
        </g>
        <g id="Group_1473" data-name="Group 1473" transform="translate(65.667 63.873)" opacity="0.2">
          <path id="Path_1413" data-name="Path 1413" d="M306.554,430.313l.34-.265.792.028c1.885.083,2.816.058,3.438-.418a.766.766,0,0,0,.108-1.29,1.852,1.852,0,0,0-1.086-.443l.24-.449a2.347,2.347,0,0,1,1.4.627,1.2,1.2,0,0,1-.123,1.956c-.756.589-1.833.615-3.4.555l-.581-.033-.013.01,1.566,1.509-.46.358Z" transform="translate(-306.554 -427.476)" fill="#404d51"/>
          <path id="Path_1414" data-name="Path 1414" d="M319.2,442.5l.34-.265.792.028c1.885.083,2.816.058,3.438-.418a.766.766,0,0,0,.108-1.29,1.853,1.853,0,0,0-1.086-.444l.24-.449a2.351,2.351,0,0,1,1.4.627,1.2,1.2,0,0,1-.123,1.956c-.756.589-1.833.615-3.4.555l-.581-.033-.013.01,1.566,1.509-.46.358Z" transform="translate(-316.448 -437.014)" fill="#404d51"/>
          <path id="Path_1415" data-name="Path 1415" d="M338.148,454.034l-1.33-1.282-1.186.69a2.516,2.516,0,0,1,.31.254,1.76,1.76,0,0,1,.53.9,1.277,1.277,0,0,1-.553,1.3,2.13,2.13,0,0,1-3.312-1.2l.54-.215a1.855,1.855,0,0,0,.519.9,1.3,1.3,0,0,0,1.714.1c.524-.417.6-1-.1-1.673a4.872,4.872,0,0,0-.527-.431l2.19-1.314,1.668,1.608Z" transform="translate(-326.941 -446.715)" fill="#404d51"/>
          <path id="Path_1416" data-name="Path 1416" d="M351.34,468.508c-1.391,1.085-2.6,1.259-3.371.515-.681-.656-.393-1.685.95-2.75,1.372-1.07,2.632-1.173,3.34-.491C352.994,466.49,352.644,467.492,351.34,468.508Zm-1.956-1.775c-1.064.829-1.39,1.569-.961,1.983.482.465,1.374.172,2.419-.643,1.007-.785,1.449-1.512.961-1.983C351.391,465.692,350.5,465.864,349.385,466.733Z" transform="translate(-338.683 -457.113)" fill="#404d51"/>
          <path id="Path_1417" data-name="Path 1417" d="M363.985,480.7c-1.391,1.085-2.6,1.259-3.371.515-.681-.657-.393-1.685.95-2.75,1.373-1.07,2.632-1.173,3.34-.49C365.638,478.68,365.288,479.681,363.985,480.7Zm-1.956-1.776c-1.064.829-1.389,1.569-.96,1.983.482.465,1.374.172,2.419-.642,1.007-.785,1.448-1.512.961-1.983C364.036,477.881,363.144,478.053,362.029,478.922Z" transform="translate(-348.577 -466.651)" fill="#404d51"/>
          <path id="Path_1418" data-name="Path 1418" d="M374.665,496.233l1.114-.869L374.16,493.8l.365-.284,4.168-.538.509.491-2.544,1.983.488.47-.434.339-.488-.47-1.114.869Zm1.549-1.207,1.366-1.065q.321-.25.658-.485l-.016-.016c-.346.083-.609.138-.894.192l-2.244.263-.013.01Z" transform="translate(-359.455 -478.733)" fill="#404d51"/>
          <path id="Path_1419" data-name="Path 1419" d="M387.31,508.422l1.114-.869-1.619-1.561.365-.285,4.168-.537.509.491-2.544,1.983.488.47-.435.339-.488-.47-1.114.869Zm1.549-1.207,1.366-1.065q.321-.25.658-.485l-.016-.015c-.346.083-.608.138-.894.192l-2.244.263-.013.01Z" transform="translate(-369.349 -488.271)" fill="#404d51"/>
          <path id="Path_1420" data-name="Path 1420" d="M400.074,511.376l1.946,1.876-.46.358-1.48-1.427-1.41,1.1,1.367,1.318-.453.353-1.367-1.318-1.92,1.5-.466-.45Z" transform="translate(-376.411 -493.127)" fill="#404d51"/>
          <path id="Path_1421" data-name="Path 1421" d="M412.077,522.948l1.946,1.876-.46.358-1.48-1.427-1.41,1.1,1.367,1.318-.453.353-1.367-1.318-1.92,1.5-.466-.45Z" transform="translate(-385.804 -502.182)" fill="#404d51"/>
          <path id="Path_1422" data-name="Path 1422" d="M424.082,534.52l1.947,1.876-.46.358-1.48-1.427-1.41,1.1,1.367,1.318-.453.353-1.367-1.318-1.92,1.5-.467-.45Z" transform="translate(-395.197 -511.237)" fill="#404d51"/>
        </g>
      </g>
    </g>
    <g id="Group_1960" data-name="Group 1960" transform="translate(1340.741 361.363)">
      <g id="Group_1474-2" data-name="Group 1474" transform="translate(0 0)">
        <g id="Group_1465-2" data-name="Group 1465" transform="translate(0 0)">
          <path id="Path_1295-2" data-name="Path 1295" d="M0,37.762,57.637,97.386,183.509,22.525,173.9,13.581,96.723,0Z" transform="translate(0.331 38.424)" stroke="#404d51" stroke-miterlimit="10" stroke-width="0.705" fill="url(#linear-gradient)"/>
          <path id="Path_1296-2" data-name="Path 1296" d="M0,74.716l3.613,3.738L129.486,3.592,125.628,0Z" transform="translate(54.355 57.357)" fill="#fff"/>
          <path id="Path_1297-2" data-name="Path 1297" d="M0,37.762,57.637,97.386,183.509,22.525,173.9,13.581,96.723,0Z" transform="translate(0.331 38.424)" fill="none" stroke="#b0afaf" stroke-miterlimit="10" stroke-width="0.705"/>
          <path id="Path_1298-2" data-name="Path 1298" d="M0,76.186l58.63,53L185.5,54.655,125.21,0Z" transform="translate(0 0)" fill="url(#linear-gradient-2)"/>
          <path id="Path_1299-2" data-name="Path 1299" d="M126.873,0,0,74.534l3.8,3.433L130.665,3.437Z" transform="translate(54.832 51.218)" fill="#fff"/>
          <path id="Path_1300-2" data-name="Path 1300" d="M0,76.186l58.63,53L185.5,54.655,125.21,0Z" transform="translate(0 0)" fill="none" stroke="#b0afaf" stroke-miterlimit="10" stroke-width="0.705"/>
        </g>
        <g id="Group_1472-2" data-name="Group 1472" transform="translate(15.255 9.817)">
          <g id="Group_1471-2" data-name="Group 1471" transform="translate(82.422 0)">
            <g id="Group_1466-2" data-name="Group 1466" transform="translate(55.216 35.541)">
              <path id="Path_1301-2" data-name="Path 1301" d="M1.844.283l-.267.47.383.466-.7-.086-.44.381L.655.992,0,.761.6.524.633,0l.534.376Z" transform="translate(7.229 0.243)" fill="#161615"/>
              <path id="Path_1302-2" data-name="Path 1302" d="M1.844.283l-.267.47.383.466-.7-.086-.44.381L.655.992,0,.761.6.524.633,0l.534.376Z" transform="translate(4.331 0)" fill="#161615"/>
              <path id="Path_1303-2" data-name="Path 1303" d="M1.844.283l-.267.47.383.466-.7-.086-.44.381L.655.992,0,.761.6.524.633,0l.534.376Z" transform="translate(0.296 2.405)" fill="#161615"/>
              <path id="Path_1304-2" data-name="Path 1304" d="M1.844.283l-.267.47.383.466-.7-.086-.44.381L.655.992,0,.761.6.524.633,0l.534.376Z" transform="translate(1.766 0.73)" fill="#161615"/>
              <path id="Path_1305-2" data-name="Path 1305" d="M1.844.283l-.267.47.383.466-.7-.086L.82,1.515.655.992,0,.761.6.524.633,0l.534.376Z" transform="translate(1.272 6.75)" fill="#161615"/>
              <path id="Path_1306-2" data-name="Path 1306" d="M1.844.283l-.267.47.383.466-.7-.086-.44.381L.655.992,0,.761.6.524.633,0l.534.376Z" transform="translate(9.66 1.75)" fill="#161615"/>
              <path id="Path_1307-2" data-name="Path 1307" d="M1.844.283l-.267.47.383.466-.7-.086-.44.381L.655.992,0,.761.6.524.633,0l.534.376Z" transform="translate(0 4.552)" fill="#161615"/>
              <path id="Path_1308-2" data-name="Path 1308" d="M1.844.283,1.167.376.633,0,.6.524,0,.761.655.992l.165.523.44-.381.7.086L1.577.753Z" transform="translate(11.15 3.844)" fill="#161615"/>
              <path id="Path_1309-2" data-name="Path 1309" d="M1.844.283,1.167.376.633,0,.6.524,0,.761.655.992l.165.523.441-.381.7.086L1.577.753Z" transform="translate(10.853 5.992)" fill="#161615"/>
              <path id="Path_1310-2" data-name="Path 1310" d="M1.844.283,1.167.376.633,0,.6.524,0,.761.655.992l.165.523.44-.381.7.086L1.577.753Z" transform="translate(6.819 8.397)" fill="#161615"/>
              <path id="Path_1311-2" data-name="Path 1311" d="M1.844.283,1.167.376.633,0,.6.524,0,.761.655.992l.165.523.44-.381.7.086L1.577.753Z" transform="translate(9.344 7.691)" fill="#161615"/>
              <path id="Path_1312-2" data-name="Path 1312" d="M1.844.283,1.167.376.633,0,.6.524,0,.761.655.992l.165.523.44-.381.7.086L1.577.753Z" transform="translate(3.921 8.154)" fill="#161615"/>
              <path id="Path_1313-2" data-name="Path 1313" d="M6.232,2.946l.879-.524L5.493.937,4.72.226,4.473,0,0,2.667,1.02,3.6l1.8-1.071L4.435,4.018l.879-.524L3.7,2.008l.919-.548Z" transform="translate(2.964 2.593)" fill="#161615"/>
            </g>
            <g id="Group_1467-2" data-name="Group 1467" transform="translate(0 8.881)">
              <path id="Path_1314-2" data-name="Path 1314" d="M1.927,4.162A3.786,3.786,0,0,1,.863,3.44C-.473,2.213-.116,1.109.968.463A3.476,3.476,0,0,1,5.116,1a2.633,2.633,0,0,1,.71.926l-1.04.339a2.1,2.1,0,0,0-.518-.695,1.814,1.814,0,0,0-2.221-.226.933.933,0,0,0-.154,1.673,3.26,3.26,0,0,0,.75.516Z" transform="translate(6.371 0)" fill="#161615"/>
              <path id="Path_1315-2" data-name="Path 1315" d="M1.3,1.38c-.2.169-.038.521.3.832a3.725,3.725,0,0,0,.825.584l-.607.546A4.452,4.452,0,0,1,.657,2.558C-.26,1.716-.2.894.737.334a2.517,2.517,0,0,1,2.928.3c.843.774.5,1.525-.314,2.009a2.5,2.5,0,0,1-.446.21Zm1.5.263c.169-.1.413-.35.111-.628A.82.82,0,0,0,2.023.932Z" transform="translate(9.147 3.243)" fill="#161615"/>
              <path id="Path_1316-2" data-name="Path 1316" d="M1.962.615C2.432.335,2.71.162,2.94,0l.816.75-.5.354.021.019a1.443,1.443,0,0,1,1.3.279.96.96,0,0,1,.173.186l-1.017.606a1.359,1.359,0,0,0-.214-.242.911.911,0,0,0-.9-.259,1.9,1.9,0,0,0-.2.1L.959,2.666,0,1.785Z" transform="translate(11.417 5.398)" fill="#161615"/>
              <path id="Path_1317-2" data-name="Path 1317" d="M4.291.685l-.843.5.541.5-.795.474-.54-.5L1.8,2.166c-.355.212-.431.361-.2.575a1.137,1.137,0,0,0,.252.2l-.825.492a2.912,2.912,0,0,1-.651-.471A.989.989,0,0,1,0,2.2c.022-.254.226-.5.677-.773L1.72.8,1.4.507,2.192.033l.323.3L3.069,0Z" transform="translate(14.221 7.253)" fill="#161615"/>
              <path id="Path_1318-2" data-name="Path 1318" d="M4.744,1a.863.863,0,0,1-1-.148c-.3-.273-.253-.579.03-.748A.849.849,0,0,1,4.774.246C5.071.519,5.04.818,4.744,1ZM0,2.362,2.962.6l.959.881L.959,3.243Z" transform="translate(15.688 8.744)" fill="#161615"/>
              <path id="Path_1319-2" data-name="Path 1319" d="M0,2.072,2.167.78,1.833.474,2.628,0l.334.307L3.07.242A2.329,2.329,0,0,1,5.8.823a2.425,2.425,0,0,1,.636.849l-.983.337a1.752,1.752,0,0,0-.471-.642c-.4-.365-.727-.394-.985-.239l-.084.05L5.527,2.663,2.565,4.428l-.959-.881L3.773,2.255l-.652-.6L.954,2.948Z" transform="translate(17.352 10.562)" fill="#161615"/>
              <path id="Path_1320-2" data-name="Path 1320" d="M1.47,3.108a3.031,3.031,0,0,1-.842-.582c-.869-.8-.837-1.644.1-2.2a2.593,2.593,0,0,1,3.1.47,2.505,2.505,0,0,1,.5.611L3.4,1.756a1.364,1.364,0,0,0-.341-.423A1.089,1.089,0,0,0,1.752,1.2.566.566,0,0,0,1.667,2.2a1.846,1.846,0,0,0,.5.338Z" transform="translate(21.099 14.218)" fill="#161615"/>
              <path id="Path_1321-2" data-name="Path 1321" d="M2.748,3.311a4.835,4.835,0,0,0-.68.47L1.21,2.992l.211-.2L1.4,2.774A1.689,1.689,0,0,1,.354,2.306.78.78,0,0,1,.423.956C1.218.483,2.2.85,3.089,1.663l.024-.014c.12-.072.173-.224-.177-.545A2.9,2.9,0,0,0,1.983.556L2.5,0A4,4,0,0,1,3.851.832c.9.823.637,1.442-.1,1.884Zm-.29-1.224c-.392-.36-.73-.488-.995-.33-.187.111-.177.266-.013.417a.691.691,0,0,0,.606.137.738.738,0,0,0,.161-.08Z" transform="translate(23.211 16.136)" fill="#161615"/>
              <path id="Path_1322-2" data-name="Path 1322" d="M4.291.685l-.843.5.541.5-.795.474-.541-.5L1.8,2.167c-.355.212-.431.361-.2.575a1.13,1.13,0,0,0,.252.195l-.825.492a2.928,2.928,0,0,1-.651-.471A.991.991,0,0,1,0,2.2c.022-.254.226-.5.677-.773L1.721.8,1.4.507,2.192.033l.323.3L3.069,0Z" transform="translate(26.341 18.386)" fill="#161615"/>
              <path id="Path_1323-2" data-name="Path 1323" d="M6.386,1.244,3.046,3.236c-.367.219-.724.447-.912.576l-.848-.779.36-.271-.011-.01A1.672,1.672,0,0,1,.382,2.3C-.222,1.748-.129.93.8.377A2.325,2.325,0,0,1,3.535.512c.286.263.428.539.352.761l.011.01L5.432.368Zm-3.548.67a1.246,1.246,0,0,0,.133-.087.364.364,0,0,0,0-.572.974.974,0,0,0-1.177,0c-.457.273-.5.593-.231.836a.728.728,0,0,0,.726.129.89.89,0,0,0,.215-.1Z" transform="translate(0 3.961)" fill="#161615"/>
              <path id="Path_1324-2" data-name="Path 1324" d="M3.042.771a13.427,13.427,0,0,1-2.415.38L0,.658A14.19,14.19,0,0,0,2.113,0Z" transform="translate(4.921 6.047)" fill="#161615"/>
              <path id="Path_1325-2" data-name="Path 1325" d="M4.744,1a.863.863,0,0,1-1-.148c-.3-.273-.253-.579.029-.748A.848.848,0,0,1,4.774.246C5.071.519,5.04.818,4.744,1ZM0,2.362,2.962.6l.959.881L.959,3.243Z" transform="translate(3.898 7.031)" fill="#161615"/>
              <path id="Path_1326-2" data-name="Path 1326" d="M1.95.622c.4-.237.724-.448.99-.622l.8.735L3.4.992l.021.019a1.746,1.746,0,0,1,1.213.449c.334.307.419.649.229.931l.011.01a2.153,2.153,0,0,1,.716.119,1.693,1.693,0,0,1,.581.352c.562.516.421,1.089-.4,1.581L4.033,5.49l-.927-.852L4.683,3.7c.367-.219.482-.432.27-.627a.576.576,0,0,0-.544-.117.864.864,0,0,0-.243.1l-1.685,1-.927-.852L3.16,2.253c.331-.2.458-.409.24-.609a.625.625,0,0,0-.532-.124.935.935,0,0,0-.249.109L.927,2.637,0,1.785Z" transform="translate(5.451 9.034)" fill="#161615"/>
              <path id="Path_1327-2" data-name="Path 1327" d="M1.95.622c.4-.237.724-.448.99-.622l.8.735L3.4.992l.021.02a1.746,1.746,0,0,1,1.213.449c.334.307.419.649.229.931l.011.01a2.162,2.162,0,0,1,.716.119,1.694,1.694,0,0,1,.582.352c.562.516.422,1.089-.4,1.581L4.033,5.49l-.928-.852L4.683,3.7c.367-.219.483-.432.271-.627a.577.577,0,0,0-.544-.117.862.862,0,0,0-.243.1l-1.686,1-.927-.852L3.16,2.254c.331-.2.458-.41.24-.609a.624.624,0,0,0-.532-.124.931.931,0,0,0-.249.109L.928,2.637,0,1.785Z" transform="translate(10.066 13.274)" fill="#161615"/>
              <path id="Path_1328-2" data-name="Path 1328" d="M2.748,3.311a4.8,4.8,0,0,0-.68.47L1.21,2.992l.211-.2L1.4,2.774A1.688,1.688,0,0,1,.354,2.306.779.779,0,0,1,.423.956C1.218.483,2.2.85,3.089,1.663l.024-.014c.12-.072.173-.224-.177-.545A2.9,2.9,0,0,0,1.983.556L2.5,0A4,4,0,0,1,3.851.832c.9.823.637,1.442-.1,1.884Zm-.29-1.224c-.392-.36-.73-.488-.995-.33-.187.111-.177.266-.013.417a.69.69,0,0,0,.605.137.738.738,0,0,0,.161-.08Z" transform="translate(14.966 17.68)" fill="#161615"/>
              <path id="Path_1329-2" data-name="Path 1329" d="M4.29.685l-.843.5.54.5-.795.474-.541-.5L1.8,2.167c-.355.212-.431.361-.2.575a1.148,1.148,0,0,0,.252.2l-.824.492a2.918,2.918,0,0,1-.651-.471A.988.988,0,0,1,0,2.2c.022-.254.226-.5.677-.773L1.72.8,1.4.507,2.192.033l.323.3L3.069,0Z" transform="translate(18.096 19.929)" fill="#161615"/>
              <path id="Path_1330-2" data-name="Path 1330" d="M1.962.615c.47-.28.747-.453.978-.615l.816.75-.5.354.021.019a1.443,1.443,0,0,1,1.3.279.967.967,0,0,1,.173.186l-1.017.606a1.377,1.377,0,0,0-.214-.242.911.911,0,0,0-.9-.26,1.926,1.926,0,0,0-.2.1L.959,2.666,0,1.785Z" transform="translate(19.562 21.997)" fill="#161615"/>
              <path id="Path_1331-2" data-name="Path 1331" d="M4.744,1a.864.864,0,0,1-1-.148c-.3-.273-.254-.579.029-.748A.849.849,0,0,1,4.774.246C5.071.519,5.04.818,4.744,1ZM0,2.362,2.962.6l.959.881L.959,3.243Z" transform="translate(21.676 23.363)" fill="#161615"/>
              <path id="Path_1332-2" data-name="Path 1332" d="M1.47,3.108a3.02,3.02,0,0,1-.842-.582c-.869-.8-.837-1.644.1-2.2a2.593,2.593,0,0,1,3.1.47,2.5,2.5,0,0,1,.5.611L3.4,1.756a1.359,1.359,0,0,0-.341-.423A1.089,1.089,0,0,0,1.753,1.2.566.566,0,0,0,1.667,2.2a1.843,1.843,0,0,0,.5.338Z" transform="translate(23.823 25.839)" fill="#161615"/>
              <path id="Path_1333-2" data-name="Path 1333" d="M3.105,3.534c-.421.251-.748.462-.99.622L1.288,3.4l.349-.272-.016-.015A1.728,1.728,0,0,1,.374,2.657c-.583-.536-.5-1.107.355-1.616L2.475,0l.959.881-1.571.937c-.379.226-.478.446-.25.655a.63.63,0,0,0,.56.132.555.555,0,0,0,.178-.074L4.1,1.49l.959.881Z" transform="translate(26.116 27.591)" fill="#161615"/>
              <path id="Path_1334-2" data-name="Path 1334" d="M4.274,0l.959.881L.959,3.429,0,2.548Z" transform="translate(28.804 29.724)" fill="#161615"/>
              <path id="Path_1335-2" data-name="Path 1335" d="M2.748,3.311a4.792,4.792,0,0,0-.68.47L1.21,2.992l.211-.2L1.4,2.774A1.689,1.689,0,0,1,.354,2.306.779.779,0,0,1,.423.956C1.218.483,2.2.85,3.089,1.663l.024-.014c.12-.072.173-.224-.177-.545A2.894,2.894,0,0,0,1.983.556L2.5,0A3.992,3.992,0,0,1,3.851.832c.9.823.637,1.442-.1,1.884Zm-.29-1.224c-.392-.36-.73-.488-.995-.33-.187.111-.177.266-.013.417a.691.691,0,0,0,.605.137.743.743,0,0,0,.161-.08Z" transform="translate(30.641 32.079)" fill="#161615"/>
              <path id="Path_1336-2" data-name="Path 1336" d="M4.291.685l-.843.5.54.5-.795.474-.541-.5L1.8,2.167c-.355.212-.431.361-.2.575a1.145,1.145,0,0,0,.252.2l-.825.491a2.914,2.914,0,0,1-.651-.471A.989.989,0,0,1,0,2.2c.021-.254.226-.5.677-.773L1.721.8,1.4.507,2.192.033l.323.3L3.069,0Z" transform="translate(33.77 34.329)" fill="#161615"/>
              <path id="Path_1337-2" data-name="Path 1337" d="M4.744,1a.863.863,0,0,1-1-.148c-.3-.273-.253-.579.029-.748A.849.849,0,0,1,4.774.246C5.071.519,5.04.818,4.744,1ZM0,2.362,2.962.6l.959.881L.959,3.243Z" transform="translate(35.237 35.82)" fill="#161615"/>
              <path id="Path_1338-2" data-name="Path 1338" d="M3.571,2.878A2.489,2.489,0,0,1,.584,2.523C-.2,1.807-.239.918.724.344A2.481,2.481,0,0,1,3.731.727,1.224,1.224,0,0,1,3.571,2.878ZM1.733,1.235c-.445.266-.655.583-.359.856.26.238.7.182,1.18-.1.409-.244.666-.574.385-.831A1.032,1.032,0,0,0,1.733,1.235Z" transform="translate(37.39 38.273)" fill="#161615"/>
              <path id="Path_1339-2" data-name="Path 1339" d="M1.95.622c.4-.237.724-.448.99-.622l.827.759-.337.265.016.014a1.819,1.819,0,0,1,1.23.455c.609.56.474,1.146-.339,1.631L2.591,4.166l-.959-.881,1.613-.962c.343-.2.441-.415.208-.63a.641.641,0,0,0-.571-.133.788.788,0,0,0-.243.1l-1.679,1L0,1.785Z" transform="translate(39.905 40.685)" fill="#161615"/>
            </g>
            <g id="Group_1470-2" data-name="Group 1470" transform="translate(16.366 0)">
              <g id="Group_1468-2" data-name="Group 1468" transform="translate(3.874 0)">
                <path id="Path_1340-2" data-name="Path 1340" d="M2.638,0a6.325,6.325,0,0,1,.705.564c.339.311.506.561.512.8a.58.58,0,0,1-.333.505,1.2,1.2,0,0,1-1.1.008l-.012.007c.1.2.011.4-.188.609a4.922,4.922,0,0,0-.56.615L1.222,2.7a3.47,3.47,0,0,1,.473-.52c.283-.269.282-.438.046-.667l-.217-.2-1.1.655L0,1.573ZM1.882,1.1l.255.234a.768.768,0,0,0,.912.171c.293-.175.247-.422-.033-.679a1.929,1.929,0,0,0-.289-.23Z" transform="translate(0 0)" fill="#161615"/>
                <path id="Path_1341-2" data-name="Path 1341" d="M.785.679C.447.9.537,1.208.81,1.458a2.112,2.112,0,0,0,.559.381L1.094,2.1a2.681,2.681,0,0,1-.713-.474C-.171,1.117-.111.589.48.237A1.589,1.589,0,0,1,2.351.381c.552.507.218.981-.207,1.234a1.537,1.537,0,0,1-.22.11Zm1.089.483c.182-.1.406-.342.119-.605A.8.8,0,0,0,1.127.476ZM3.668.389,2.652.344l-.3-.273L3.246,0Z" transform="translate(2.327 2.497)" fill="#161615"/>
                <path id="Path_1342-2" data-name="Path 1342" d="M2.075.4C2.329.245,2.528.115,2.7,0l.377.347L2.8.543,2.811.55a1.26,1.26,0,0,1,.924.332c.391.359.335.885-.268,1.244a1.525,1.525,0,0,1-1.811-.1.563.563,0,0,1-.221-.593l-.007-.007-1,.6L0,1.633Zm-.051.681A.535.535,0,0,0,1.9,1.17a.363.363,0,0,0,.036.55.886.886,0,0,0,1.072.017c.341-.2.472-.5.2-.757A.777.777,0,0,0,2.462.842.59.59,0,0,0,2.322.9Z" transform="translate(2.996 3.882)" fill="#161615"/>
                <path id="Path_1343-2" data-name="Path 1343" d="M1.791,2.212c-.23.137-.414.257-.565.358L.849,2.223l.273-.194-.007-.007a1.184,1.184,0,0,1-.882-.3C-.078,1.438-.151,1.052.48.676L1.614,0l.429.395L.993,1.021c-.321.192-.437.4-.21.607a.706.706,0,0,0,.59.145.611.611,0,0,0,.175-.067l1.166-.7.43.395Z" transform="translate(6.135 5.765)" fill="#161615"/>
                <path id="Path_1344-2" data-name="Path 1344" d="M0,1.666c.138-.071.359-.193.558-.311L2.831,0,3.26.395,2.11,1.08l.007.007a1.168,1.168,0,0,1,.854.316c.415.382.32.889-.271,1.235a1.535,1.535,0,0,1-1.811-.09.578.578,0,0,1-.2-.693L.678,1.85.367,2ZM1.241,1.6a.572.572,0,0,0-.1.078.37.37,0,0,0,.04.553.877.877,0,0,0,1.068.019c.341-.2.476-.5.189-.763A.782.782,0,0,0,1.7,1.349a.762.762,0,0,0-.141.063Z" transform="translate(7.797 7.069)" fill="#161615"/>
                <path id="Path_1345-2" data-name="Path 1345" d="M2.817,0,3.25.4.433,2.077,0,1.679Z" transform="translate(9.853 8.945)" fill="#161615"/>
                <path id="Path_1346-2" data-name="Path 1346" d="M2.929.5A.432.432,0,0,1,2.423.429.215.215,0,0,1,2.447.055a.435.435,0,0,1,.507.063A.218.218,0,0,1,2.929.5ZM0,1.55,1.932.4l.433.4L.433,1.948Z" transform="translate(10.751 9.898)" fill="#161615"/>
                <path id="Path_1347-2" data-name="Path 1347" d="M1.088,1.8l-.007-.006a1.119,1.119,0,0,1-.837-.3C-.136,1.139-.091.61.512.25a1.534,1.534,0,0,1,1.8.08.529.529,0,0,1,.2.633l0,.009L2.783.828,3.2,1.21c-.182.1-.371.2-.573.321L.467,2.817l-.43-.395Zm.869-.518a.623.623,0,0,0,.109-.08.351.351,0,0,0-.03-.538A.885.885,0,0,0,.972.637c-.353.21-.468.507-.2.757a.729.729,0,0,0,.688.145.673.673,0,0,0,.172-.07Z" transform="translate(11.961 11.362)" fill="#161615"/>
                <path id="Path_1348-2" data-name="Path 1348" d="M1.791,2.212c-.23.137-.414.257-.565.358L.849,2.224l.273-.194-.007-.006a1.184,1.184,0,0,1-.882-.3C-.078,1.438-.151,1.052.48.676L1.614,0l.43.395L.993,1.022c-.321.192-.437.4-.21.606a.706.706,0,0,0,.59.146.616.616,0,0,0,.175-.067l1.166-.7.429.395Z" transform="translate(13.984 12.975)" fill="#161615"/>
                <path id="Path_1349-2" data-name="Path 1349" d="M.785.679C.447.9.537,1.208.809,1.458a2.11,2.11,0,0,0,.559.381L1.094,2.1a2.676,2.676,0,0,1-.713-.474C-.171,1.117-.111.589.48.237a1.589,1.589,0,0,1,1.87.144c.552.507.218.981-.207,1.234a1.529,1.529,0,0,1-.22.11Zm1.089.483c.182-.1.406-.342.119-.605A.8.8,0,0,0,1.127.476Z" transform="translate(16.008 15.064)" fill="#161615"/>
                <path id="Path_1350-2" data-name="Path 1350" d="M2.674,0,4.033,1.248l-.4.239L2.7.634l-.738.44.866.8-.4.239-.866-.8L.43,1.989,0,1.594Z" transform="translate(18.202 16.699)" fill="#161615"/>
                <path id="Path_1351-2" data-name="Path 1351" d="M1.309.384C1.571.228,1.754.114,1.918,0l.374.343L1.937.576l.014.013A.988.988,0,0,1,2.828.77a.6.6,0,0,1,.089.1l-.46.274a.781.781,0,0,0-.11-.125A.73.73,0,0,0,1.594.886a1.08,1.08,0,0,0-.165.077l-1,.6L0,1.165Z" transform="translate(19.885 18.675)" fill="#161615"/>
                <path id="Path_1352-2" data-name="Path 1352" d="M.806,1.952.992,1.8l-.011-.01A1.189,1.189,0,0,1,.22,1.481.481.481,0,0,1,.261.647C.749.356,1.376.559,2,1.139l.032-.019c.127-.076.292-.243-.009-.519a1.585,1.585,0,0,0-.6-.335L1.657,0a2.131,2.131,0,0,1,.785.463c.545.5.309.879-.111,1.13l-.7.416a3.515,3.515,0,0,0-.44.3Zm.888-.614c-.3-.284-.661-.505-.955-.33-.19.113-.17.265-.033.39a.675.675,0,0,0,.6.15A.47.47,0,0,0,1.428,1.5Z" transform="translate(21.248 19.879)" fill="#161615"/>
                <path id="Path_1353-2" data-name="Path 1353" d="M1.357.356c.222-.132.4-.247.561-.356L2.3.347,2.027.539l.01.01a1.177,1.177,0,0,1,.875.3c.3.273.386.685-.225,1.049L1.54,2.58l-.429-.395L2.2,1.535c.278-.166.4-.374.163-.589A.7.7,0,0,0,1.744.808a.653.653,0,0,0-.176.079L.433,1.562,0,1.165Z" transform="translate(22.87 21.417)" fill="#161615"/>
                <path id="Path_1354-2" data-name="Path 1354" d="M1.686,1.993a2.053,2.053,0,0,1-.515-.323l-.224.017a.244.244,0,0,1-.03.4.617.617,0,0,1-.731-.167A.572.572,0,0,1,0,1.634l.261-.061a.457.457,0,0,0,.125.211.216.216,0,0,0,.251.056Q.768,1.763.52,1.5l.433-.047A.756.756,0,0,1,1.213.218,1.662,1.662,0,0,1,3.19.472a1.315,1.315,0,0,1,.325.436l-.442.147A.915.915,0,0,0,2.824.712a.955.955,0,0,0-1.147-.1.483.483,0,0,0-.1.849,1.422,1.422,0,0,0,.414.266Z" transform="translate(24.491 23.536)" fill="#161615"/>
                <path id="Path_1355-2" data-name="Path 1355" d="M.805,1.952.992,1.8l-.01-.01a1.189,1.189,0,0,1-.761-.308A.481.481,0,0,1,.261.647C.749.356,1.376.559,2,1.139l.032-.019c.127-.076.292-.243-.009-.519a1.584,1.584,0,0,0-.6-.335L1.657,0a2.128,2.128,0,0,1,.785.463c.545.5.309.879-.111,1.13l-.7.416a3.488,3.488,0,0,0-.44.3Zm.888-.614c-.3-.284-.661-.505-.955-.33-.19.114-.169.265-.033.39a.675.675,0,0,0,.6.149A.474.474,0,0,0,1.428,1.5Z" transform="translate(26.587 24.784)" fill="#161615"/>
                <path id="Path_1356-2" data-name="Path 1356" d="M2.929.5A.431.431,0,0,1,2.423.429.215.215,0,0,1,2.447.055a.435.435,0,0,1,.507.063A.218.218,0,0,1,2.929.5ZM0,1.55,1.932.4l.433.4L.433,1.948Z" transform="translate(28.209 25.936)" fill="#161615"/>
                <path id="Path_1357-2" data-name="Path 1357" d="M.437.7a1.093,1.093,0,0,0,.3.484c.189.173.36.2.487.123s.129-.183,0-.425c-.2-.383-.134-.634.1-.766a1.079,1.079,0,0,1,1.25.228A1.187,1.187,0,0,1,2.9.824L2.475.952a.876.876,0,0,0-.249-.4.372.372,0,0,0-.44-.1c-.123.073-.1.183.027.434.18.358.145.6-.137.769A1.091,1.091,0,0,1,.382,1.385,1.3,1.3,0,0,1,0,.83Z" transform="translate(29.093 27.324)" fill="#161615"/>
                <path id="Path_1358-2" data-name="Path 1358" d="M.785.679C.447.9.537,1.208.809,1.458a2.113,2.113,0,0,0,.559.381L1.094,2.1a2.67,2.67,0,0,1-.713-.474C-.171,1.117-.111.589.48.237A1.589,1.589,0,0,1,2.351.381c.552.507.218.981-.207,1.234a1.533,1.533,0,0,1-.221.11Zm1.088.483c.182-.1.406-.342.119-.606A.8.8,0,0,0,1.127.476Z" transform="translate(30.907 28.75)" fill="#161615"/>
              </g>
              <g id="Group_1469-2" data-name="Group 1469" transform="translate(0 2.723)">
                <path id="Path_1359-2" data-name="Path 1359" d="M2.221,1.809c.245-.164.54-.362.772-.5l-.007-.007c-.272.078-.569.153-.905.229L.9,1.805.741,1.659,1.356.894a7.67,7.67,0,0,1,.529-.6l0,0C1.646.423,1.325.6,1.034.747L.2,1.179,0,1,1.957,0l.267.245-.615.786a6.918,6.918,0,0,1-.457.521l.007.007c.227-.073.487-.141.792-.213L3.132,1.08l.267.246L1.657,2.517l-.2-.188Z" transform="translate(0 0)" fill="#161615"/>
                <path id="Path_1360-2" data-name="Path 1360" d="M1.932.272A.237.237,0,0,1,1.65.236.119.119,0,0,1,1.67.031a.245.245,0,0,1,.283.032A.12.12,0,0,1,1.932.272ZM0,1.066,1.324.277l.212.195L.212,1.261Z" transform="translate(2.001 1.767)" fill="#161615"/>
                <path id="Path_1361-2" data-name="Path 1361" d="M.966.222C1.1.141,1.212.072,1.315,0L1.5.173,1.3.314l0,0a.825.825,0,0,1,.634.205c.161.148.3.444-.152.714L.993,1.71.781,1.515l.763-.455c.213-.127.321-.3.121-.481a.586.586,0,0,0-.53-.114.463.463,0,0,0-.127.053l-.8.475L0,.8Z" transform="translate(2.564 2.553)" fill="#161615"/>
                <path id="Path_1362-2" data-name="Path 1362" d="M1.932.272A.236.236,0,0,1,1.65.236.119.119,0,0,1,1.67.031a.245.245,0,0,1,.283.032A.12.12,0,0,1,1.932.272ZM0,1.066,1.324.277l.212.195L.212,1.261Z" transform="translate(3.901 3.512)" fill="#161615"/>
                <path id="Path_1363-2" data-name="Path 1363" d="M.236.52A.622.622,0,0,0,.42.833.354.354,0,0,0,.843.924C.958.856.961.763.87.58.745.337.778.168.937.073a.682.682,0,0,1,.791.138.674.674,0,0,1,.2.312L1.7.579A.51.51,0,0,0,1.542.314.322.322,0,0,0,1.166.243c-.109.065-.089.159,0,.337.115.238.1.4-.094.519A.7.7,0,0,1,.237.935.781.781,0,0,1,0,.58Z" transform="translate(4.445 4.403)" fill="#161615"/>
                <path id="Path_1364-2" data-name="Path 1364" d="M1.759.153l-.38.227.3.279L1.5.767,1.2.489.481.914c-.164.1-.216.191-.1.3a.747.747,0,0,0,.139.1l-.171.117A.851.851,0,0,1,.13,1.28.311.311,0,0,1,0,1.01C.014.912.11.822.266.729L.988.3.807.132.991.023l.181.166L1.489,0Z" transform="translate(5.619 5.038)" fill="#161615"/>
                <path id="Path_1365-2" data-name="Path 1365" d="M.515.733a.36.36,0,0,0-.06.641,1.287,1.287,0,0,0,.391.256L.71,1.766a1.592,1.592,0,0,1-.47-.307A.52.52,0,0,1,.334.534,1.066,1.066,0,0,1,1.6.61c.381.349.1.669-.142.814a1.185,1.185,0,0,1-.119.061Zm.794.468c.156-.089.336-.284.1-.5A.673.673,0,0,0,.69.632ZM2.057.215,1.878.642,1.726.5l.1-.5Z" transform="translate(6.422 5.698)" fill="#161615"/>
                <path id="Path_1366-2" data-name="Path 1366" d="M.911.255C1.067.162,1.2.08,1.315,0L1.5.17,1.247.332l.01.009A.682.682,0,0,1,1.87.464a.3.3,0,0,1,.052.06L1.695.66A.429.429,0,0,0,1.63.589.573.573,0,0,0,1.037.512.836.836,0,0,0,.915.57L.21.991,0,.8Z" transform="translate(7.407 7.001)" fill="#161615"/>
                <path id="Path_1367-2" data-name="Path 1367" d="M.515.368a.36.36,0,0,0-.06.641,1.284,1.284,0,0,0,.391.256L.71,1.4a1.6,1.6,0,0,1-.47-.307A.52.52,0,0,1,.334.169,1.066,1.066,0,0,1,1.6.246c.381.349.1.669-.142.814a1.146,1.146,0,0,1-.119.06Zm.794.468c.156-.089.336-.284.1-.5A.673.673,0,0,0,.69.268Z" transform="translate(8.392 7.873)" fill="#161615"/>
                <path id="Path_1368-2" data-name="Path 1368" d="M2.742.4l-1.6.954c-.118.07-.249.152-.332.213l-.19-.175.22-.146,0,0a.828.828,0,0,1-.657-.21C-.105.772-.051.411.351.171A1.051,1.051,0,0,1,1.585.228a.385.385,0,0,1,.149.444l0,0L2.53.2Zm-1.369.5A.47.47,0,0,0,1.464.825.292.292,0,0,0,1.437.378.724.724,0,0,0,.576.362C.308.522.2.76.431.97a.617.617,0,0,0,.6.114.545.545,0,0,0,.113-.053Z" transform="translate(10.095 9.446)" fill="#161615"/>
                <path id="Path_1369-2" data-name="Path 1369" d="M.515.368a.36.36,0,0,0-.06.641,1.283,1.283,0,0,0,.391.256L.71,1.4a1.59,1.59,0,0,1-.47-.307A.52.52,0,0,1,.334.169,1.066,1.066,0,0,1,1.6.246c.381.35.1.669-.142.814a1.1,1.1,0,0,1-.119.06Zm.794.468c.156-.089.336-.284.1-.5A.673.673,0,0,0,.69.267Z" transform="translate(11.467 10.697)" fill="#161615"/>
                <path id="Path_1370-2" data-name="Path 1370" d="M1.942,0l.212.195L.212,1.353,0,1.158Z" transform="translate(12.963 11.745)" fill="#161615"/>
                <path id="Path_1371-2" data-name="Path 1371" d="M1.029.187A4.971,4.971,0,0,1,.154.365L0,.253A5.624,5.624,0,0,0,.785,0Z" transform="translate(14.658 12.38)" fill="#161615"/>
                <path id="Path_1372-2" data-name="Path 1372" d="M1.932.272A.237.237,0,0,1,1.65.236.12.12,0,0,1,1.67.031a.246.246,0,0,1,.283.032A.12.12,0,0,1,1.932.272ZM0,1.067,1.324.277l.212.195L.212,1.261Z" transform="translate(13.95 12.743)" fill="#161615"/>
                <path id="Path_1373-2" data-name="Path 1373" d="M.966.222C1.1.141,1.212.072,1.314,0L1.5.173,1.3.314l0,0a.825.825,0,0,1,.634.205c.161.148.3.444-.152.714L.992,1.71.781,1.515l.763-.455c.213-.127.321-.3.121-.481a.586.586,0,0,0-.53-.114.469.469,0,0,0-.127.053l-.8.475L0,.8Z" transform="translate(14.513 13.529)" fill="#161615"/>
                <path id="Path_1374-2" data-name="Path 1374" d="M1.759.153,1.378.38l.3.279L1.5.767,1.2.489.481.914c-.164.1-.216.191-.1.3a.743.743,0,0,0,.139.1l-.171.116A.849.849,0,0,1,.13,1.28.31.31,0,0,1,0,1.01C.014.912.11.822.266.729L.988.3.807.133.991.023l.181.166L1.489,0Z" transform="translate(16.041 14.612)" fill="#161615"/>
                <path id="Path_1375-2" data-name="Path 1375" d="M.515.368a.36.36,0,0,0-.06.641,1.286,1.286,0,0,0,.391.256L.71,1.4a1.6,1.6,0,0,1-.47-.308A.52.52,0,0,1,.334.169,1.066,1.066,0,0,1,1.6.246c.381.35.1.669-.142.814a1.164,1.164,0,0,1-.119.06Zm.794.468c.156-.089.336-.284.1-.5A.673.673,0,0,0,.689.267ZM2.464.224,1.779.187,1.627.048l.6-.039Z" transform="translate(16.844 15.637)" fill="#161615"/>
                <path id="Path_1376-2" data-name="Path 1376" d="M.911.255C1.067.162,1.2.08,1.314,0L1.5.17,1.247.332l.01.009A.681.681,0,0,1,1.87.464a.292.292,0,0,1,.052.06L1.694.66A.421.421,0,0,0,1.63.589.573.573,0,0,0,1.037.512.9.9,0,0,0,.915.57L.21.991,0,.8Z" transform="translate(17.829 16.575)" fill="#161615"/>
                <path id="Path_1377-2" data-name="Path 1377" d="M1.932.272A.237.237,0,0,1,1.65.236.12.12,0,0,1,1.67.031a.245.245,0,0,1,.283.032A.12.12,0,0,1,1.932.272ZM0,1.067,1.324.277l.212.195L.212,1.261Z" transform="translate(18.626 17.039)" fill="#161615"/>
                <path id="Path_1378-2" data-name="Path 1378" d="M.515.368a.36.36,0,0,0-.06.641,1.29,1.29,0,0,0,.391.256L.71,1.4a1.6,1.6,0,0,1-.47-.307A.52.52,0,0,1,.334.169,1.066,1.066,0,0,1,1.6.246c.381.35.1.669-.142.814a1.156,1.156,0,0,1-.12.06Zm.794.468c.156-.089.336-.284.1-.5A.673.673,0,0,0,.69.267Z" transform="translate(19.411 17.995)" fill="#161615"/>
                <path id="Path_1379-2" data-name="Path 1379" d="M1.127,1.477C.99,1.558.872,1.632.775,1.7L.587,1.528l.2-.14,0,0a.847.847,0,0,1-.632-.207C-.028,1.009-.132.739.333.462L1.107,0l.212.195L.586.632c-.252.15-.354.313-.161.49a.6.6,0,0,0,.5.126.481.481,0,0,0,.142-.056L1.878.708,2.09.9Z" transform="translate(20.606 18.935)" fill="#161615"/>
                <path id="Path_1380-2" data-name="Path 1380" d="M.911.255C1.067.162,1.2.08,1.315,0L1.5.17,1.247.332l.01.009A.682.682,0,0,1,1.87.464a.3.3,0,0,1,.052.06L1.695.66A.426.426,0,0,0,1.63.589.573.573,0,0,0,1.037.512.865.865,0,0,0,.915.57L.21.991,0,.8Z" transform="translate(21.723 20.152)" fill="#161615"/>
              </g>
            </g>
            <line id="Line_61-2" data-name="Line 61" x2="46.522" y2="42.736" transform="translate(12.353 6.082)" fill="none" stroke="#161615" stroke-miterlimit="10" stroke-width="0.825"/>
          </g>
          <path id="Path_1381-2" data-name="Path 1381" d="M41.043,40.193,0,.717,1.2,0,42.246,39.475Z" transform="translate(31.529 47.252)" fill="#404d51" opacity="0.2"/>
          <path id="Path_1382-2" data-name="Path 1382" d="M41.043,40.193,0,.717,1.2,0,42.246,39.475Z" transform="translate(29.431 48.502)" fill="#404d51" opacity="0.2"/>
          <path id="Path_1383-2" data-name="Path 1383" d="M41.043,40.193,0,.717,1.2,0,42.246,39.475Z" transform="translate(27.334 49.752)" fill="#404d51" opacity="0.2"/>
          <path id="Path_1384-2" data-name="Path 1384" d="M41.043,40.193,0,.717,1.2,0,42.246,39.475Z" transform="translate(25.237 51.002)" fill="#404d51" opacity="0.2"/>
          <path id="Path_1385-2" data-name="Path 1385" d="M41.043,40.193,0,.717,1.2,0,42.246,39.475Z" transform="translate(23.139 52.252)" fill="#404d51" opacity="0.2"/>
          <path id="Path_1386-2" data-name="Path 1386" d="M41.043,40.193,0,.717,1.2,0,42.246,39.475Z" transform="translate(21.042 53.502)" fill="#404d51" opacity="0.2"/>
          <path id="Path_1387-2" data-name="Path 1387" d="M41.043,40.193,0,.717,1.2,0,42.246,39.476Z" transform="translate(18.945 54.751)" fill="#404d51" opacity="0.2"/>
          <path id="Path_1388-2" data-name="Path 1388" d="M41.043,40.193,0,.717,1.2,0,42.246,39.475Z" transform="translate(16.847 56.001)" fill="#404d51" opacity="0.2"/>
          <path id="Path_1389-2" data-name="Path 1389" d="M41.043,40.193,0,.717,1.2,0,42.246,39.476Z" transform="translate(14.681 57.292)" fill="#404d51" opacity="0.2"/>
          <path id="Path_1390-2" data-name="Path 1390" d="M41.043,40.193,0,.717,1.2,0,42.246,39.476Z" transform="translate(12.584 58.542)" fill="#404d51" opacity="0.2"/>
          <path id="Path_1391-2" data-name="Path 1391" d="M41.043,40.193,0,.717,1.2,0,42.246,39.476Z" transform="translate(10.487 59.792)" fill="#404d51" opacity="0.2"/>
          <path id="Path_1392-2" data-name="Path 1392" d="M41.043,40.193,0,.717,1.2,0,42.246,39.476Z" transform="translate(8.389 61.042)" fill="#404d51" opacity="0.2"/>
          <path id="Path_1393-2" data-name="Path 1393" d="M41.043,40.193,0,.717,1.2,0,42.246,39.476Z" transform="translate(6.292 62.292)" fill="#404d51" opacity="0.2"/>
          <path id="Path_1394-2" data-name="Path 1394" d="M41.043,40.193,0,.717,1.2,0,42.246,39.476Z" transform="translate(4.195 63.542)" fill="#404d51" opacity="0.2"/>
          <path id="Path_1395-2" data-name="Path 1395" d="M41.043,40.193,0,.717,1.2,0,42.246,39.475Z" transform="translate(2.097 64.791)" fill="#404d51" opacity="0.2"/>
          <path id="Path_1396-2" data-name="Path 1396" d="M41.043,40.193,0,.717,1.2,0,42.246,39.476Z" transform="translate(0 66.041)" fill="#404d51" opacity="0.2"/>
          <path id="Path_1397-2" data-name="Path 1397" d="M42.235,39.605,0,.716,1.2,0,43.436,38.889Z" transform="translate(77.938 18.413)" fill="#404d51" opacity="0.2"/>
          <path id="Path_1398-2" data-name="Path 1398" d="M42.235,39.605,0,.716,1.2,0,43.436,38.889Z" transform="translate(75.845 19.661)" fill="#404d51" opacity="0.2"/>
          <path id="Path_1399-2" data-name="Path 1399" d="M42.235,39.605,0,.716,1.2,0,43.436,38.889Z" transform="translate(73.752 20.908)" fill="#404d51" opacity="0.2"/>
          <path id="Path_1400-2" data-name="Path 1400" d="M42.235,39.605,0,.716,1.2,0,43.436,38.889Z" transform="translate(71.659 22.156)" fill="#404d51" opacity="0.2"/>
          <path id="Path_1401-2" data-name="Path 1401" d="M42.235,39.605,0,.716,1.2,0,43.436,38.889Z" transform="translate(69.566 23.404)" fill="#404d51" opacity="0.2"/>
          <path id="Path_1402-2" data-name="Path 1402" d="M42.235,39.605,0,.716,1.2,0,43.436,38.889Z" transform="translate(67.473 24.651)" fill="#404d51" opacity="0.2"/>
          <path id="Path_1403-2" data-name="Path 1403" d="M42.235,39.605,0,.716,1.2,0,43.436,38.889Z" transform="translate(65.38 25.899)" fill="#404d51" opacity="0.2"/>
          <path id="Path_1404-2" data-name="Path 1404" d="M42.235,39.605,0,.716,1.2,0,43.436,38.889Z" transform="translate(63.287 27.147)" fill="#404d51" opacity="0.2"/>
          <path id="Path_1405-2" data-name="Path 1405" d="M42.235,39.605,0,.716,1.2,0,43.436,38.889Z" transform="translate(61.126 28.435)" fill="#404d51" opacity="0.2"/>
          <path id="Path_1406-2" data-name="Path 1406" d="M42.235,39.605,0,.716,1.2,0,43.436,38.889Z" transform="translate(59.033 29.683)" fill="#404d51" opacity="0.2"/>
          <path id="Path_1407-2" data-name="Path 1407" d="M42.235,39.605,0,.716,1.2,0,43.436,38.889Z" transform="translate(56.94 30.931)" fill="#404d51" opacity="0.2"/>
          <path id="Path_1408-2" data-name="Path 1408" d="M42.235,39.605,0,.716,1.2,0,43.436,38.889Z" transform="translate(54.847 32.178)" fill="#404d51" opacity="0.2"/>
          <path id="Path_1409-2" data-name="Path 1409" d="M42.235,39.605,0,.716,1.2,0,43.436,38.889Z" transform="translate(52.753 33.426)" fill="#404d51" opacity="0.2"/>
          <path id="Path_1410-2" data-name="Path 1410" d="M42.235,39.605,0,.716,1.2,0,43.436,38.889Z" transform="translate(50.661 34.674)" fill="#404d51" opacity="0.2"/>
          <path id="Path_1411-2" data-name="Path 1411" d="M42.235,39.605,0,.716,1.2,0,43.436,38.889Z" transform="translate(48.567 35.922)" fill="#404d51" opacity="0.2"/>
          <path id="Path_1412-2" data-name="Path 1412" d="M42.235,39.605,0,.716,1.2,0,43.436,38.889Z" transform="translate(46.474 37.169)" fill="#404d51" opacity="0.2"/>
        </g>
        <g id="Group_1473-2" data-name="Group 1473" transform="translate(53.292 51.837)" opacity="0.2">
          <path id="Path_1413-2" data-name="Path 1413" d="M0,2.3l.276-.215.642.023c1.53.067,2.285.047,2.79-.339A.622.622,0,0,0,3.8.724a1.5,1.5,0,0,0-.881-.36L3.11,0A1.905,1.905,0,0,1,4.248.509a.973.973,0,0,1-.1,1.587,4.185,4.185,0,0,1-2.758.45L.918,2.52l-.01.008L2.179,3.753l-.373.291Z" transform="translate(0 0)" fill="#404d51"/>
          <path id="Path_1414-2" data-name="Path 1414" d="M0,2.3l.276-.215.643.023c1.53.067,2.285.047,2.79-.339A.622.622,0,0,0,3.8.724a1.5,1.5,0,0,0-.882-.36L3.11,0A1.908,1.908,0,0,1,4.248.509a.973.973,0,0,1-.1,1.587,4.186,4.186,0,0,1-2.758.451L.918,2.52l-.01.008L2.179,3.753l-.373.291Z" transform="translate(2.232 2.152)" fill="#404d51"/>
          <path id="Path_1415-2" data-name="Path 1415" d="M4.5,1.6,3.417.559l-.962.56a2.051,2.051,0,0,1,.251.206,1.428,1.428,0,0,1,.43.727,1.037,1.037,0,0,1-.449,1.055A1.664,1.664,0,0,1,.5,2.977,1.65,1.65,0,0,1,0,2.138l.438-.175a1.506,1.506,0,0,0,.421.727,1.057,1.057,0,0,0,1.391.084c.425-.339.488-.813-.078-1.358a3.952,3.952,0,0,0-.427-.35L3.521,0,4.875,1.3Z" transform="translate(4.599 4.34)" fill="#404d51"/>
          <path id="Path_1416-2" data-name="Path 1416" d="M3.024,2.562C1.895,3.442.915,3.584.288,2.98c-.552-.533-.319-1.367.771-2.232C2.173-.121,3.2-.2,3.77.35,4.366.924,4.082,1.737,3.024,2.562ZM1.437,1.121C.574,1.794.309,2.394.658,2.73c.391.378,1.115.14,1.963-.521C3.438,1.571,3.8.981,3.4.6,3.066.276,2.342.416,1.437,1.121Z" transform="translate(7.248 6.686)" fill="#404d51"/>
          <path id="Path_1417-2" data-name="Path 1417" d="M3.024,2.562C1.9,3.442.915,3.584.288,2.98c-.553-.533-.319-1.367.771-2.232C2.173-.121,3.2-.2,3.77.35,4.366.924,4.082,1.737,3.024,2.562ZM1.437,1.121C.574,1.794.31,2.394.658,2.73c.392.378,1.115.14,1.963-.521C3.438,1.571,3.8.981,3.4.6,3.065.276,2.341.416,1.437,1.121Z" transform="translate(9.48 8.838)" fill="#404d51"/>
          <path id="Path_1418-2" data-name="Path 1418" d="M.41,2.639l.9-.7L0,.667.3.436,3.679,0l.413.4L2.028,2.007l.4.382-.353.275-.4-.382-.9.7Zm1.257-.98L2.776.8Q3.036.592,3.31.4L3.3.389C3.016.456,2.8.5,2.571.545L.75.758.74.766Z" transform="translate(11.934 11.563)" fill="#404d51"/>
          <path id="Path_1419-2" data-name="Path 1419" d="M.41,2.639l.9-.7L0,.667.3.436,3.679,0l.413.4L2.028,2.007l.4.382-.353.275-.4-.382-.9.705Zm1.257-.98L2.776.8Q3.036.592,3.31.4L3.3.389C3.015.456,2.8.5,2.571.545L.75.758.74.766Z" transform="translate(14.166 13.715)" fill="#404d51"/>
          <path id="Path_1420-2" data-name="Path 1420" d="M3.444,0l1.58,1.523-.373.291L3.449.656,2.3,1.548l1.11,1.07L3.047,2.9l-1.11-1.07L.378,3.049,0,2.684Z" transform="translate(15.759 14.81)" fill="#404d51"/>
          <path id="Path_1421-2" data-name="Path 1421" d="M3.444,0l1.58,1.523-.373.291L3.449.656,2.3,1.548l1.11,1.07L3.047,2.9l-1.11-1.07L.378,3.049,0,2.684Z" transform="translate(17.878 16.853)" fill="#404d51"/>
          <path id="Path_1422-2" data-name="Path 1422" d="M3.444,0l1.58,1.523-.373.291L3.449.656,2.3,1.548l1.109,1.07L3.047,2.9l-1.11-1.07L.379,3.049,0,2.684Z" transform="translate(19.997 18.896)" fill="#404d51"/>
        </g>
      </g>
    </g>
  </g>
</svg>
