<?xml version="1.0" encoding="utf-8"?>
<!-- Generator: Adobe Illustrator 26.3.1, SVG Export Plug-In . SVG Version: 6.00 Build 0)  -->
<svg version="1.1" xmlns="http://www.w3.org/2000/svg" xmlns:xlink="http://www.w3.org/1999/xlink" x="0px" y="0px"
	 viewBox="0 0 3022.79 1198.55" style="enable-background:new 0 0 3022.79 1198.55;" xml:space="preserve">
<style type="text/css">
	.st0{fill:url(#SVGID_1_);}
	.st1{fill:url(#SVGID_00000075879111909536693960000015686161961829092529_);}
	.st2{fill:#C4C0C0;}
	.st3{fill:#727171;}
	.st4{fill:#070505;}
	.st5{fill:#0F0505;}
	.st6{fill:#F7F5F5;}
	.st7{fill:#111109;}
	.st8{fill:url(#SVGID_00000083074406075969269640000009523530192076324268_);}
	.st9{fill:url(#SVGID_00000001662488268408984250000010866199340079410341_);}
	.st10{fill:#72726A;}
	.st11{fill:#FFFFFF;}
	.st12{fill:url(#SVGID_00000064322588843393306010000014829377484123602842_);}
	.st13{fill:url(#SVGID_00000111152660810260015520000004854550661364582541_);}
	.st14{fill:#E2E2E2;}
	.st15{fill:#0C0B0B;}
	.st16{fill:#848383;}
	.st17{fill:#F7F2F2;}
	.st18{fill:#E5E3E3;}
	.st19{fill:#E24242;}
	.st20{fill:#FCFCFC;}
	.st21{fill-rule:evenodd;clip-rule:evenodd;fill:#D32F2F;}
	.st22{fill-rule:evenodd;clip-rule:evenodd;fill:#FAFAFA;}
	.st23{fill-rule:evenodd;clip-rule:evenodd;fill:#141414;}
</style>
<linearGradient id="SVGID_1_" gradientUnits="userSpaceOnUse" x1="499.4951" y1="767.1668" x2="803.9376" y2="767.1668">
	<stop  offset="2.000000e-08" style="stop-color:#3F3E3E"/>
	<stop  offset="0.9969" style="stop-color:#101012"/>
</linearGradient>
<ellipse class="st0" cx="651.72" cy="767.17" rx="152.22" ry="148.37"/>
<linearGradient id="SVGID_00000096765087291287044860000007439382494814388608_" gradientUnits="userSpaceOnUse" x1="1904.6337" y1="792.2786" x2="2228.2322" y2="792.2786">
	<stop  offset="2.000000e-08" style="stop-color:#3F3E3E"/>
	<stop  offset="0.9969" style="stop-color:#101012"/>
</linearGradient>
<ellipse style="fill:url(#SVGID_00000096765087291287044860000007439382494814388608_);" cx="2066.43" cy="792.28" rx="161.8" ry="157.71"/>
<path class="st2" d="M2584.19,583.17l-20.77-129.28l6.39-49.84l-178.97-179.12l22.37-37.38l-97.47-15.58l-49.54-38.94
	c-321.82-25.9-597.68-19.59-827.74,0l-113.45,59.19c-165.96,55.57-325.15,121.39-479.38,194.69
	c-137.6,18.99-254.7,57.35-365.93,101.24l-43.14,66.97c-21.07,22.19-14.84,68.62-19.18,113.7
	c-31.05,33.45-17.54,119.15,15.98,137.06l79.9,28.04h73.51c-19.83-70.09-14.22-125.34,53.93-198.98
	c91.38-58.69,202.94-34.41,249.68,3.5c46.89,50.73,67.89,127.64,71.91,186.91l1009.9,1.77l19.18-140.39
	c20.52-36.3,60.03-61.44,126.24-70.87c193.1-29.78,221.35,87.3,238.09,195.47c71.11-14.8,140.65-29.37,215.72-66.2
	C2598.4,699.35,2594.88,642.56,2584.19,583.17z M1507.96,168.84l47.95-22.56c223.65-15.91,383.07-17.32,596.83,0l14.4,28.04
	C1935.95,158,1714.18,153.59,1507.96,168.84z"/>
<path class="st3" d="M903.15,418.07c217.35-138.73,502.55-230.52,656.86-222.73c284.33-3.11,556.99-4.8,699.8,9.35l28.76,15.58
	l102.27,4.67l41.77,41.8l-124.86-2.86c-30.9,17.76-74.33,36.67-136.72,72.52l-1029.78,81.67L925.52,435.2l-22.37-9.35V418.07z"/>
<polygon class="st4" points="1535.94,212.48 1516.18,279.45 1489.62,395.08 1601.51,387.69 1601.51,194.9 1544.53,194.9 "/>
<polygon class="st5" points="1972.18,192.18 2002.54,294.99 2002.54,361.22 2066.43,357 2066.43,304.37 2019.3,194.9 "/>
<path class="st6" d="M2050.31,211.53l44.76,115.96c4.02-0.43,56.95-2.68,72.91-4.48l120.65-65.42l-29.57-39.94
	C2195.57,217.65,2118.39,211.53,2050.31,211.53z"/>
<path class="st4" d="M975.06,455.45l-11.19,102.8v54.51l20.77,80.99l-10.39-99.68v-49.84c50.63,4.93,61.01-96.31,10.39-101.24
	h-10.39L975.06,455.45z"/>
<polygon class="st4" points="1545.56,391.38 1516.18,576.94 1516.18,738.93 1530.87,801.23 1530.87,685.97 1530.87,584.73 "/>
<polygon class="st4" points="2066.43,357 2104.81,414.96 2104.81,536.44 2112.8,411.84 "/>
<path class="st7" d="M450.93,774.75h83.89c-52.73-243.13,358.12-335.4,429.05-102.8l38.35,84.11h644.77l297.22-62.3
	c50.53-163.15,337.97-225.07,436.24-70.87l213.33-26.58c23.41,53.71,12.84,103.87-11.19,152.74
	c-58.49,26.63-150.44,47.69-238.09,65.42h-462.61l-897.25,14.02c-107.06,209.49-373.6,141.41-428.25,5.45
	c-28.75,3.26-46.1,1.74-69.51-5.45L450.93,774.75z"/>
<linearGradient id="SVGID_00000013156829915494286400000009209890240358225575_" gradientUnits="userSpaceOnUse" x1="600.1383" y1="806.2965" x2="923.7369" y2="806.2965">
	<stop  offset="2.000000e-08" style="stop-color:#3F3E3E"/>
	<stop  offset="0.9969" style="stop-color:#101012"/>
</linearGradient>
<ellipse style="fill:url(#SVGID_00000013156829915494286400000009209890240358225575_);" cx="761.94" cy="806.3" rx="161.8" ry="157.71"/>
<linearGradient id="SVGID_00000183245500231901411120000003642941574994478005_" gradientUnits="userSpaceOnUse" x1="640.1323" y1="812.7536" x2="887.585" y2="812.7536">
	<stop  offset="2.000000e-08" style="stop-color:#3F3E3E"/>
	<stop  offset="0.9969" style="stop-color:#8C8C85"/>
</linearGradient>
<ellipse style="fill:url(#SVGID_00000183245500231901411120000003642941574994478005_);" cx="763.86" cy="812.75" rx="123.73" ry="119"/>
<polygon class="st10" points="1062.94,776.31 1050.16,801.23 1050.16,824.59 1889.08,824.59 1889.08,800.45 1868.31,757.62 "/>
<path class="st11" d="M786.3,927.75c16.07-3.3,36.49-11.01,49.37-19.94l-42.29-88.8l91.43-31.38c-2.99-14.45-8.15-29.35-16.29-41.23
	l-86.02,21.22l-3.64-67.96c-5.59-0.79-11.31-1.2-17.14-1.2c-9.66,0-19.05,1.13-28.03,3.26l1.65,66.86l-76.54-18.73
	c-8.36,13.21-14.57,30.95-16.67,47.01l78.37,22.13l-39.56,80.5c11.23,9.44,28.12,17.99,42.52,22.77l38.26-84.24"/>
<linearGradient id="SVGID_00000167354424303089463590000015490423799172829066_" gradientUnits="userSpaceOnUse" x1="2019.3047" y1="812.7536" x2="2342.9033" y2="812.7536">
	<stop  offset="2.000000e-08" style="stop-color:#3F3E3E"/>
	<stop  offset="0.9969" style="stop-color:#101012"/>
</linearGradient>
<ellipse style="fill:url(#SVGID_00000167354424303089463590000015490423799172829066_);" cx="2181.1" cy="812.75" rx="161.8" ry="157.71"/>
<linearGradient id="SVGID_00000160161673174842240040000000993363173937245071_" gradientUnits="userSpaceOnUse" x1="2059.2986" y1="819.2108" x2="2306.7515" y2="819.2108">
	<stop  offset="2.000000e-08" style="stop-color:#3F3E3E"/>
	<stop  offset="0.9969" style="stop-color:#8C8C85"/>
</linearGradient>
<ellipse style="fill:url(#SVGID_00000160161673174842240040000000993363173937245071_);" cx="2183.02" cy="819.21" rx="123.73" ry="119"/>
<path class="st11" d="M2205.47,934.21c16.07-3.3,36.49-11.01,49.37-19.94l-42.29-88.8l91.43-31.38
	c-2.99-14.45-8.15-29.35-16.29-41.23l-86.02,21.22l-3.64-67.96c-5.59-0.79-11.31-1.2-17.14-1.2c-9.66,0-19.05,1.13-28.03,3.26
	l1.65,66.86l-76.54-18.73c-8.36,13.21-14.57,30.95-16.67,47.01l78.37,22.13l-39.56,80.5c11.23,9.44,28.12,17.99,42.52,22.77
	l38.26-84.24"/>
<polygon class="st14" points="938.3,435.2 1489.62,395.08 2002.54,349.76 2171.02,336.4 2306.75,254.53 2328.52,254.53 2181.1,357 
	1489.62,411.84 923.74,455.45 884.82,424.3 903.15,418.07 "/>
<polygon class="st6" points="1615.83,211.53 1960.99,211.53 1986.56,287.24 1986.56,327.49 1615.83,361.22 "/>
<polygon class="st15" points="1037.84,342.03 1110.14,422.7 1098.1,435.2 923.74,455.45 884.82,424.3 "/>
<path class="st6" d="M1060.26,342.03c140.52-72.1,301.44-116.76,464.5-134.23l-45.54,172.11l-369.07,28.04L1060.26,342.03z"/>
<path class="st2" d="M1033.38,386.92c-7.71,16.93-0.85,26.7,23.17,28.04l47.94-4.67l39.15-9.35l16.78-25.7
	c-4.19-20.35-19.96-31.83-49.54-32.71l-39.15,12.46L1033.38,386.92z"/>
<polygon class="st16" points="1126.86,536.44 1235.52,494.39 1986.56,433.96 2427.59,398.74 2437.95,414.96 1232.33,515.81 "/>
<path class="st17" d="M1045.37,391.38l31.16-26.27l33.61-12.46c25.13-3.02,28.21,4.79,17.52,19.37l-41.15,6.72l-41.15,26.09
	C1038.31,404.38,1037.51,400.36,1045.37,391.38z"/>
<polygon class="st18" points="1374.54,482.71 1405.7,494.39 1503.18,494.39 1507.97,477.26 1421.68,477.26 "/>
<polygon class="st18" points="1954.6,435.2 1972.18,425.08 2066.43,421.19 2059.3,440.66 1964.99,446.72 "/>
<polygon class="st19" points="2386,265.67 2432.61,266.74 2566.61,391.38 2566.61,435.2 2476.31,433.96 2414.81,404.83 
	2465.94,361.22 "/>
<polygon class="st20" points="474.9,505.06 684.23,463.24 658.66,485.82 423.76,568.37 462.12,515.81 "/>
<g>
	<path class="st21" d="M485.04,596.29c0.06,0.1,0.12,0.2,0.18,0.3l61.11,105.85H301.2l66.28-114.8l0.01,0l56.28-97.49L485.04,596.29
		L485.04,596.29z"/>
	<path class="st22" d="M423.76,510.41l-52.54,91l-0.01,0l-52.49,90.91H528.8l-52.31-90.6c-0.07-0.12-0.15-0.25-0.22-0.37
		L423.76,510.41L423.76,510.41z"/>
	<path class="st23" d="M431.03,639.62c0,1.93-0.77,3.76-2.14,5.12c-1.36,1.36-3.2,2.14-5.13,2.14c-1.93,0-3.76-0.77-5.13-2.14
		c-1.36-1.36-2.14-3.19-2.14-5.12v-62.31c0-1.93,0.77-3.76,2.14-5.13c1.36-1.36,3.19-2.14,5.13-2.14c1.93,0,3.76,0.77,5.13,2.14
		c1.36,1.36,2.14,3.2,2.14,5.13V639.62L431.03,639.62L431.03,639.62z M418.62,666.68c1.37-1.37,3.21-2.13,5.14-2.13
		c1.94,0,3.78,0.76,5.14,2.13c1.37,1.37,2.13,3.21,2.13,5.14c0,1.94-0.76,3.78-2.13,5.14c-1.37,1.37-3.21,2.13-5.14,2.13
		c-1.94,0-3.78-0.76-5.14-2.13c-1.37-1.37-2.13-3.21-2.13-5.14C416.49,669.89,417.25,668.05,418.62,666.68L418.62,666.68z"/>
</g>
<g>
	<path class="st21" d="M2676.53,561.72c0.1,0.15,0.19,0.31,0.28,0.46l93.65,162.21h-375.65l101.57-175.92l0.01,0.01l86.25-149.39
		L2676.53,561.72L2676.53,561.72z"/>
	<path class="st22" d="M2582.64,430.11l-80.52,139.46l-0.01-0.01l-80.44,139.32h321.92l-80.16-138.83
		c-0.11-0.19-0.23-0.38-0.34-0.57L2582.64,430.11L2582.64,430.11z"/>
	<path class="st23" d="M2593.76,628.12c0,2.96-1.18,5.77-3.27,7.85c-2.09,2.09-4.9,3.27-7.85,3.27c-2.96,0-5.77-1.18-7.85-3.27
		c-2.09-2.09-3.27-4.9-3.27-7.85v-95.48c0-2.96,1.18-5.76,3.27-7.85c2.09-2.09,4.9-3.27,7.85-3.27c2.96,0,5.76,1.18,7.85,3.27
		c2.09,2.09,3.27,4.9,3.27,7.85V628.12L2593.76,628.12L2593.76,628.12z M2574.75,669.59c2.1-2.1,4.92-3.27,7.88-3.27
		c2.97,0,5.79,1.17,7.88,3.27c2.1,2.1,3.26,4.92,3.26,7.88c0,2.97-1.17,5.79-3.26,7.88c-2.1,2.1-4.92,3.27-7.88,3.27
		c-2.97,0-5.79-1.17-7.88-3.27c-2.1-2.1-3.26-4.92-3.26-7.88C2571.49,674.51,2572.66,671.69,2574.75,669.59L2574.75,669.59z"/>
</g>
<g>
	<path class="st21" d="M1424.05,629.44c0.05,0.08,0.1,0.16,0.15,0.24l49.37,85.52h-198.05l53.55-92.75l0.01,0l45.47-78.76
		L1424.05,629.44L1424.05,629.44z"/>
	<path class="st22" d="M1374.54,560.05l-42.45,73.52l-0.01,0l-42.41,73.45h169.72l-42.26-73.2c-0.06-0.1-0.12-0.2-0.18-0.3
		L1374.54,560.05L1374.54,560.05z"/>
	<path class="st23" d="M1380.41,664.45c0,1.56-0.62,3.04-1.73,4.14c-1.1,1.1-2.58,1.73-4.14,1.73s-3.04-0.62-4.14-1.73
		c-1.1-1.1-1.73-2.58-1.73-4.14v-50.34c0-1.56,0.62-3.04,1.73-4.14c1.1-1.1,2.58-1.73,4.14-1.73c1.56,0,3.04,0.62,4.14,1.73
		c1.1,1.1,1.73,2.58,1.73,4.14V664.45L1380.41,664.45L1380.41,664.45z M1370.39,686.31c1.11-1.11,2.59-1.72,4.16-1.72
		c1.56,0,3.05,0.62,4.16,1.72c1.11,1.11,1.72,2.59,1.72,4.16c0,1.56-0.62,3.05-1.72,4.16c-1.11,1.11-2.59,1.72-4.16,1.72
		c-1.56,0-3.05-0.62-4.16-1.72c-1.11-1.11-1.72-2.59-1.72-4.16C1368.67,688.9,1369.28,687.42,1370.39,686.31L1370.39,686.31z"/>
</g>
</svg>
